/* XPM */
static char *_f004d4053d144f88ac4219fc762abd9ql0oU0XxVpL446bG[] = {
/* columns rows colors chars-per-pixel */
"50 50 256 2 ",
"   c #E49557",
".  c #1C2F60",
"X  c #A6858F",
"o  c #9F8190",
"O  c #1C2F60",
"+  c #80625C",
"@  c #847192",
"#  c #6A6195",
"$  c #D08B58",
"%  c #30395F",
"&  c #1A2E60",
"*  c #1C2F5E",
"=  c #DF9159",
"-  c #1C3060",
";  c #1C2F60",
":  c #1C2F60",
">  c #193165",
",  c #1E335C",
"<  c #DD8E59",
"1  c #193063",
"2  c #D4875E",
"3  c #2B365F",
"4  c #1C2E61",
"5  c #1D2D5F",
"6  c #344268",
"7  c #1B2F61",
"8  c #7B618A",
"9  c #CB7F62",
"0  c #99657B",
"q  c #1B305F",
"w  c #BC8159",
"e  c #253564",
"r  c #43435F",
"t  c #1C2F60",
"y  c #203263",
"u  c #735C5C",
"i  c #D48D58",
"p  c #8B685C",
"a  c #F8F8FC",
"s  c #C27666",
"d  c #A7828C",
"f  c #B16C71",
"g  c #735788",
"h  c #9E5067",
"j  c #1C2F5E",
"k  c #1E2E5D",
"l  c #2E2E69",
"z  c #22325F",
"x  c #1B2F5F",
"c  c #574E5F",
"v  c #243566",
"b  c #B76D6D",
"n  c #BE6E60",
"m  c #B0795C",
"M  c #172F5E",
"N  c #DEA07A",
"B  c #1A3359",
"V  c #1B2F5F",
"C  c #52548B",
"Z  c #AC777F",
"A  c #884E76",
"S  c #A8765A",
"D  c #C57C65",
"F  c #BC7365",
"G  c #1C2E60",
"H  c #A4838F",
"J  c #8F768D",
"K  c #8D7071",
"L  c #1B305F",
"P  c #394277",
"I  c gray99",
"U  c #2B3A6A",
"Y  c #FBFBFB",
"T  c #8D8987",
"R  c #E8D1A6",
"E  c #AD6169",
"W  c #89738E",
"Q  c #1B2F60",
"!  c #674C66",
"~  c #354167",
"^  c #746374",
"/  c #323E66",
"(  c #986E62",
")  c #2F3C6F",
"_  c #1C2F60",
"`  c #64609D",
"'  c #3A4579",
"]  c #494F85",
"[  c #1C2F60",
"{  c #3A466F",
"}  c #CBCBEA",
"|  c #A4586B",
" . c #1C325C",
".. c #CF815E",
"X. c #D88B5D",
"o. c #A4808B",
"O. c #363D61",
"+. c #9A7D90",
"@. c #B16869",
"#. c #8E6681",
"$. c #B1898B",
"%. c #937A91",
"&. c #9F7D89",
"*. c #58586E",
"=. c #695663",
"-. c #77576D",
";. c #1C2F5F",
":. c #B78167",
">. c #6B5E72",
",. c #A1656A",
"<. c #846B70",
"1. c None",
"2. c #1C2F5F",
"3. c #846C83",
"4. c #9896C5",
"5. c #2B3760",
"6. c #2F3D65",
"7. c #4D4563",
"8. c #786165",
"9. c #895A66",
"0. c #2A3963",
"q. c #DAD7EE",
"w. c #313E65",
"e. c #898CB6",
"r. c #946464",
"t. c #1D2F61",
"y. c #343F66",
"u. c #7770B6",
"i. c #B5A692",
"p. c #343E66",
"a. c #314071",
"s. c #6E6F7B",
"d. c #848184",
"f. c #FFE1AC",
"g. c #8C93B1",
"h. c #FFDBA7",
"j. c #935D76",
"k. c #8A5778",
"l. c #AA737A",
"z. c #9E697B",
"x. c #605A88",
"c. c #80688E",
"v. c #CE9986",
"b. c #444461",
"n. c #C39389",
"m. c #E6A684",
"M. c #3C3E63",
"N. c #67555D",
"B. c #554C5D",
"V. c #816F93",
"C. c #ACAFCF",
"Z. c #866D8E",
"A. c #1D2F61",
"S. c #1B2F60",
"D. c #B27066",
"F. c #F7B082",
"G. c #343C62",
"H. c #494D6F",
"J. c #1C2F5F",
"K. c #C08F77",
"L. c #42487F",
"P. c #1C2F61",
"I. c #767CA5",
"U. c #564B5F",
"Y. c #6865A7",
"T. c #D5D8ED",
"R. c #ECEDF6",
"E. c #535B8E",
"W. c #7C605B",
"Q. c #545274",
"!. c #B38876",
"~. c #CA957A",
"^. c #775C89",
"/. c #A46D7D",
"(. c #6A5D6C",
"). c #3E446B",
"_. c #714569",
"`. c #323A5F",
"'. c #73658F",
"]. c #54507A",
"[. c #95777A",
"{. c #736493",
"}. c #8C6A7A",
"|. c #6E687C",
" X c #443D66",
".X c #B2AAE3",
"XX c #A8A1D4",
"oX c #655A6B",
"OX c #6A6D7B",
"+X c #6771A1",
"@X c #605378",
"#X c #AF766C",
"$X c #C8C7DF",
"%X c #8D83D2",
"&X c #4D485E",
"*X c #D5D7F3",
"=X c #C5875B",
"-X c #544C5D",
";X c #C09779",
":X c #40425F",
">X c #936B5A",
",X c #A8AECC",
"<X c #5D6694",
"1X c #3C4C7B",
"2X c #D2D0E3",
"3X c #F8C493",
"4X c #F0F1F7",
"5X c #42476A",
"6X c #CAB99B",
"7X c #374874",
"8X c #D3916B",
"9X c #BFB098",
"0X c #9B8D84",
"qX c #F6BB8B",
"wX c #4E5D87",
"eX c #8892B3",
"rX c #7B7A81",
"tX c #656979",
"yX c #EBCCA1",
"uX c #897B7B",
"iX c #898585",
"pX c #DBC6A2",
"aX c #FFD4A0",
"sX c #1C2F60",
"dX c #8790B1",
"fX c #4F5D86",
"gX c #4E5D89",
"hX c #B0B4DC",
"jX c #6E627C",
"kX c #936C5A",
"lX c #865364",
"zX c #4E3D68",
"xX c #60515D",
"cX c #BC8159",
"vX c #776994",
"bX c #896787",
"nX c #E5E7F6",
"mX c #3C4267",
"MX c #BFC0E0",
"NX c #C4C7EE",
"BX c #C3C5ED",
"VX c #BF9982",
"CX c #FFC995",
"ZX c #747EA9",
"AX c #A3AABE",
"SX c #DBAB88",
"DX c #535A73",
"FX c #747EAA",
"GX c #8078C0",
"HX c #C7B79B",
"JX c #D8DBE3",
"KX c #DBBA96",
"LX c #7E7D82",
"PX c #7B7B81",
"IX c #47704C",
"UX c #47704C",
/* pixels */
"UXUXUXUXUXUXUXUXUXUXUXUXUXUXUXUXUXUXUXUXUXUXUXUXUXUXUXUXUXUXUXUXUXUXUXUXUXUXUXUXUXUXUXUXUXUXUXUXUXUX",
"UXUXUXUXUXUXUXUXUXUXUXUXUXUXUXUXUXUXUXUXUXUXUXUXUXUXUXUXUXUXUXUXUXUXUXUXUXUXUXUXUXUXUXUXUXUXUXUXUXUX",
"UXUXUXUXUXUXUXUXUXUXUXUXUXUXUXUXUXUXUXUXUXUXUXUXUXUXUXUXUXUXUXUXUXUXUXUXUXUXUXUXUXUXUXUXUXUXUXUXUXUX",
"UXUXUXUXUXUXUXUXUXUXUXUXUXUXUXUXUXUXUXUXUXUXUXUXUXUXUXUXUXUXUXUXUXUXUXUXUXUXUXUXUXUXUXUXUXUXUXUXUXUX",
"UXUXUXUXUXUXUXUXUXUXM 5 & & & & & & & & & & & & & & & & & - Q > UXUXUXUXUXUXUXUXUXUXUXUXUXUXUXUXUXUX",
"UXUXUXUXUXUXUXUXUXUX5 V O O O O O O O O O O O O O O O O O L * 1 UXUXUXUXUXUXUXUXUXUXUXUXUXUXUXUXUXUX",
"UXUXUXUXUXUXUXl k e z 5.% % % % % % % % % % % % % % % % % O.`.- M > l UXUXUXUXUXUXUXUXUXUXUXUXUXUXUX",
"UXUXUXUXUXUXUXe G V b.N.+ + + + + + + + + + + + + + + + + W.xX`.x 7 > UXUXUXUXUXUXUXUXUXUXUXUXUXUXUX",
"UXUXUXUXUXUXUX5 t P.B.kX$ $ $ $ $ $ $ $ $ $ $ $ $ $ $ $ $ cXW.O.: x k UXUXUXUXUXUXUXUXUXUXUXUXUXUXUX",
"UXUXUXUX, Q - G.&XB.+ m                                   i 1.u -Xb.z 7 j UXUXUXUXUXUXUXUXUXUXUXUXe ",
"UXUXUXUXM z L :X8.1.w $                                   = =Xm >XN.5.t - UXUXUXUXUXUXUXUXUXUXUXUX7 ",
"UXUXUXUX1 q 4 r p i                                             w u 3 : * UXUXUXUXUXUXUXUXUXUXUXUX. ",
"UXUXUXUX1 q 4 r p i                                             w u 3 : * UXUXUXUXUXUXUXUXUXUXUXUX. ",
"UXUXUXUX1 q 4 r p i                                             w u 3 : * UXUXUXUXUXUXUXUXUXUXUXUX. ",
"UXUXUXUX1 q 4 r p i                                             w u 3 : * UXUXUXUXUXUXUXUXUXUXUXUX. ",
"UXUXUXUX1 q 4 r p i                                             w u 3 : * UXUXUXUXUXUXUXUXUXUXUXUX. ",
"UXUXUXUX1 q 4 r p i                                             w u 3 : * UXUXUXUXUXUXUXUXUXUXUXUX. ",
"UXUXUXUX1 q 4 r p i                                             w u 3 : * UXUXUXUXUXUXUXUXUXUXUXUX. ",
"UXUXUXUX1 q 4 r p i                                             w u 3 : * UXUXUXUXUXUXUXUXUXUXUXUX. ",
"UXUXUXUX1 q 4 r + 9 X.=                                     < X.m =.3 : * UXUXUXUXUXUXUXUXUXUXUXUX. ",
"UXUXUXUX1 q 4 M.-.D.9 X.                                  = 2 D ,.! 3 : * UXUXUXUXUXUXUXUXUXUXUXUX. ",
"UXUX> B 0.w.~ 7.-.,.F ..= = = = < < < < < < < < < < = = = X.D f j.! M./ 6.j k , UXUXUXUXUXUXUXUXUX. ",
"UXl 5 t.y.oX<.K }.#.z.#X9 9 9 9 s F n n n n n n s D 9 9 9 D l.0 #.}.K 8.*.t .  .UXUXUXUXUXUXUXUXUX. ",
"UX, * O O.<.~.v.&.{.8 z.b b b b E | h h h h h h | E b b b f #.8 Z.$.N !.(._ 2.- UXUXUXUXUXUXUXUXUX. ",
"UX> x [ p.K N m.$.V.c.#.0 0 0 0 j.k.A A A A A A k.j.0 0 0 0 bXc.%.n.F.K.>.; ;.G UXUXUXUXUXUXUXUXUX. ",
"UX> x [ p.K N m.n.+.W c.8 8 8 8 ^.g g g g g g g ^.^.8 8 8 8 Z.J X v.F.K.>.; ;.G UXUXUXUXUXUXUXUXUX. ",
"UX, * O O.<.~.N n.$.%.V.# # # # # # # # # # # # # # # # # {.@ +.$.v.m.!.(._ 2.- UXUXUXUXUXUXUXUXUX. ",
"UXl 5 t.y.oX<.[.&.H o %.@ @ @ @ @ @ @ @ @ @ @ @ @ @ @ @ @ W %.o o.[.K 8.*.t .  .UXUXUXUXUXUXUXUXUX. ",
"UXUX> B 0.w.~ H.^ &.H H o o o o o o o o o o o o o o o o o o H H J >.mX/ 6.j k , UXUXUXUXUXUXUXUXUX. ",
"UXUXUXUXM z L / Q.|.3.W %.+.o X X X X X X X X X X X X o +.J W 3.jXQ.5.t - UXUXUXUXUXUXUXUXUXUXUXUX7 ",
"UXUXUXUX, Q - G.).{ ].x.vXW +.X X X X X X X X X X X H %.V.'.x.H.~ b.z 7 j UXUXUXUXUXUXUXUXUXUXUXUXe ",
"UXUXUXUXUXUXUX5 A.J.) L.x.'.J o.o.d d d d d d d d o.&.Z.# C ' v S.V B UXUXUXUXUXUXUXUXUXUXUXUXUXUXUX",
"UXUXUXUXUXUXUX5 A.J.v a.' @Xk.z./.l.Z Z Z Z Z Z l./.0 ^.].P ) y S.V B UXUXUXUXUXUXUXUXUXUXUXUXUXUXUX",
"UXUXUXUXUXUXUX5 A.J.; y v zX_.h | @.f f f f f f E | h _. Xy y ; S.V B UXUXUXUXUXUXUXUXUXUXUXUXUXUXUX",
"UXUXUXUX, Q - G.&XB.U.7. X! 9.E @.F s s s s s s n @.E lX! 7.7.U.-Xb.z 7 j UXUXUXUXUXUXUXUXUXUXUXUXe ",
"UXUXUXUXM z L :X8.1.( r.9.,.F ....2 2 2 2 2 2 2 2 ..9 D.r.9.r.1.>XN.5.t - UXUXUXUXUXUXUXUXUXUXUXUX7 ",
"UXUX> B 0.w.~ c ( = 2 F ,.F 2                       = 9 D.@.D = =Xp 5X/ 6.j k , UXUXUXUXUXUXUXUXUX. ",
"UXl 5 t.y.tXd.0X;XN 8X( ! r.w                       = m 9.-.#X8XN ;X0XrX*.t .  .UXUXUXUXUXUXUXUXUX. ",
"UX, * O { d.6XyXqXF.K.^ 3 =.m                       = ( U.r K N qX3XyXi.OX_ 2.- UXUXUXUXUXUXUXUXUX. ",
"UX> x [ 6 iXpXh.aX3XVX^ ; c ( :.:.m S S S S S S m :.:.+ r 6 uXSXCXaXf.9Xs.; ;.G UXUXUXUXUXUXUXUXUX7 ",
"UX> x [ 6 iXpXf.h.aXi.s.; 5X>.3.^ =.c c c c c c =.^ 3.@Xp.6 uXKXh.h.f.9Xs.; ;.G UXUXUXUXUXUXUXUXUXe ",
"UX, * O { d.6XR R R i.|.; P C ` ] ) y y ; ; y y P C ` ] ) 6 LXHXR R R i.OX_ 2.- UXUXUXUXUXUXUXUXUXUX",
"UXl 5 t.y.tXd.T T T s.H.; L.` u.` ] P U y v ) ' C Y.u.E.a.U DXPXT T T rX*.t .  .UXUXUXUXUXUXUXUXUXUX",
"UXUX> B 0.w.~ 6 6 6 U v ; ] u.%Xu.` C P v U L.C Y.GX%XY.' y v p.6 6 6 / 6.j k , UXUXUXUXUXUXUXUXUXUX",
"UXUXUXUXM z L [ 4 y U 1XE.I.4..XXX4.I.E.U ' <Xe.4.XX.Xe.+XC ' v sXP.: t - UXUXUXUXUXUXUXUXUXUXUXUXUX",
"UXUXUXUX, Q - V O sX1X+X4.C.$Xq.q.2XC.I.a.] e.$X2Xq.q.MXC.e.<Xa.4 L * 7 j UXUXUXUXUXUXUXUXUXUXUXUXUX",
"UXUXUXUXUXUXUX5 t P.wXeXNX*X4XI I I JXeX{ wXAX4XI I I nX*XhXFX{ : x k UXUXUXUXUXUXUXUXUXUXUXUXUXUXUX",
"UXUXUXUXUXUXUXe G V fXdXBXT.R.Y Y Y T.dX7XfX,XR.Y Y Y R.T.,XZX7Xx 7 > UXUXUXUXUXUXUXUXUXUXUXUXUXUXUX",
"UXUXUXUXUXUXUXl k e gXg.} } a a a a } g.e gXg.a a a a a } } g.e M > l UXUXUXUXUXUXUXUXUXUXUXUXUXUXUX",
"UXUXUXUXUXUXUXUXUXUXUXUXUXUXUXUXUXUXUXUXUXUXUXUXUXUXUXUXUXUXUXUXUXUXUXUXUXUXUXUXUXUXUXUXUXUXUXUXUXUX"
};
