/* XPM */
static char *_7a1a52684744f89d92d4b2a60385086GpdeKtffpZnanV2B[] = {
/* columns rows colors chars-per-pixel */
"50 50 59 1 ",
"  c #77B3FE",
". c #67A6CF",
"X c #527785",
"o c #AAC7FE",
"O c #60A0BA",
"+ c #4E4E4F",
"@ c #5C94AA",
"# c #82B7FE",
"$ c gray57",
"% c gray25",
"& c #79797A",
"* c #6EABE1",
"= c #4C4C4C",
"- c gray32",
"; c #808080",
": c #547D8E",
"> c gray35",
", c #465358",
"< c #424343",
"1 c gray45",
"2 c #676767",
"3 c #A3C4FE",
"4 c #9D9D9D",
"5 c #7BB5FE",
"6 c #9AC1FE",
"7 c #454A4C",
"8 c gray29",
"9 c None",
"0 c #92BEFE",
"q c gray34",
"w c #8E8E8E",
"e c gray35",
"r c #888888",
"t c #4D5559",
"y c #88BAFE",
"u c #989898",
"i c #74B1F5",
"p c #A2A2A2",
"a c #585858",
"s c #6D6D6D",
"d c #444444",
"f c #64A4C5",
"g c gray65",
"h c #838383",
"j c #71AEEB",
"k c #A9A9A9",
"l c #5B92A7",
"z c #536065",
"x c #598496",
"c c #587C8B",
"v c #6AA9D6",
"b c #6D9FDE",
"n c #5B7393",
"m c #679AC7",
"M c #5E7FA9",
"N c #5A5A5A",
"B c #6996CE",
"V c #5F9CB4",
"C c #47704C",
/* pixels */
"CCCCCCCCCCCCCCCCCCCCCCCCCCCCCCCCCCCCCCCCCCCCCCCCCC",
"CCCCCCCCCCCCCCCCCCCCCCCCCCCCCCCCCCCCCCCCCCCCCCCCCC",
"CCCCCCCCCCCCCCCCCCCCCCCCCCCCCCCCCCCCCCCCCCCCCCCCCC",
"CCCCCCCCCCCCCCCCCCCCCCCCCCCCCCCCCCCCCCCCCCCCCCCCCC",
"CCCCCCCCCCCCCCCCCCCCCCCCCCCCCCCCCCCCCCCCCCCCCCCCCC",
"CNqqqqqqqqqq888888888888888888888888qqqqqqqqqqqqNC",
"C>eeeeeeeeee9999999999999999999999999eeeeeeeeeee>C",
"C>2;;;;;;;;;&&&hhhhh;&&&&&&&&&&&&&&&;;;hrrrrrrr2>C",
"C>1uh;;;;;;;;;hrrrrrh;;;;;;;;;;;;;;;;;;rrrrrrwp1>C",
"C>14-<<<<<<<<<ddddddd<<<<<<<<<<<<<<<<<<dddddd-41>C",
"C>14-z::::::::::::::::::::::::::::::::::::::z-41>C",
"C>14-XOOOf.........OOOVxxxxx@OOOf.......fOOOX-41>C",
"C>14-XOOO*        iOOO@t+7<<XOOO*       *OOOX-4s=C",
"C>14-XOO*i         jfO@t&r17XOO*i       i*OOX-4s=C",
"C>1u-Xfvi           *f@twkw+Xfvi         ivfX-4s=C",
"C>s$+X.              *@twkw+X.             .X-4s=C",
"C>s$+X.           56#*@twkw+X.       #6#   .X-4s=C",
"C>s$+X.          #0oy*@twkw+X.      #0o#   .X-u2=C",
"C>s$+X.         50ooy*@twkw+X.     50oo#   .X+$2=C",
"C>s$+X.         03ooy*@twkw+X.     03oo#   .X+$2=C",
"C>s$+X.       5y3o30#*@twkw+X.   503o30#   .X+$2=C",
"C>s$+X.      5yooo65 *@twkw+X.  5yooo6     .X+$2=C",
"C>s$+X.      y3oo6#  *@twkw+X.  y3oo0#     .X+$2=C",
"C=s$+X.     y6oo6y   *l+rk$-c.  0oo6#      .X+$2=C",
"C=2$+X.    #3oo3#    *l7hg$ac.  0o3#       .X+$2=C",
"C=2$+X.   #3oo3#     *l7&4$ac.  06#        .X+$2=C",
"C=2u+X.   #oo6y      *l7&u$ac.  #y         .X+u2=C",
"C=s4-X.   #o3y      bmx7&u$aX@bi           .X-4s=C",
"C=s4-X.   #oy5      n+7<&u$a77tb           .X-4s=C",
"C=s4-X.   #y5     jn&&1d&u$a2&&nB          .X+u2=C",
"C=s4-X.           b7;p$7&u$a;pu-M          .X+$2=C",
"C=s4-X.           b71wh7&u$a1wr+M          .X+$2=C",
"C=2u+X.          ##x2za<&44aazzcm          .X+$2=C",
"C=2$+X.         #06*czt<&pga,zzOj          .X+$2=C",
"C=2$+X.         6o35vfl7&pg-XO.i           .X+$s>C",
"C=2$+X.       #63o35ivl7&pg-X.j      #6#   .X+$s>C",
"C=2$+X.      #0oo30  *l7&pg-X.      #0o#   .X+$s>C",
"C=2$+X.      0ooo0   *l7&pg-X.      0oo#   .X+$s>C",
"C=2$+X.     03oo0#   *l7&pg-X.     03oo#   .X+$s>C",
"C=2$+X.   5y3o36#    *l+&pg-X.   5y3o36#   .X+u1>C",
"C=2$+X.   #ooo6      *@t&pg-X.   yooo6     .X-41>C",
"C=2$+X.   #oo6#      *@t&pg-X.   yoo6#     .X-41>C",
"C=2$+Xf*i #o6y      j.@t&pg-Xf*i yo6y    i*fX-41>C",
"C=2$+XOOj #3#      i.O@t&pg-XOOj #3#     jOOX-41>C",
"C=su-XOOf*5#5     i.OO@t&pgacOOf*5#5    *fOOX-41>C",
"C=s4-XOOO.********vOOO@t&pgacOOO.*******.OOOX-41>C",
"C=2$+X@@@@@@@@@@@@@@@@xt1uuaX@@@@@@@@@@@@@@@X+$s>C",
"C=7-<7,,,,,,,,,,,,,,,,,d+--d7,,,,,,,,,,,,,,,7<-7=C",
"C8%%%%%%%%%%%%%%%%%%%%%%%%%%%%%%%%%%%%%%%%%%%%%%8C",
"CCCCCCCCCCCCCCCCCCCCCCCCCCCCCCCCCCCCCCCCCCCCCCCCCC"
};
