/* XPM */
static char *_c45d0041d7a4652c26735ee362ce702Wk8iVuLWjtJnNPa3[] = {
/* columns rows colors chars-per-pixel */
"50 50 256 2 ",
"   c #E49557",
".  c #1A2E60",
"X  c #1D2F60",
"o  c #2F395F",
"O  c #FFE3AE",
"+  c #D08B58",
"@  c #80625B",
"#  c #1C2E60",
"$  c #1C2F60",
"%  c #1D3162",
"&  c #212C64",
"*  c #B76D6D",
"=  c #DF9159",
"-  c #324168",
";  c #142762",
":  c #1D2F5F",
">  c gray99",
",  c #CB7F63",
"<  c #8D8987",
"1  c #E9D1A6",
"2  c #D5885E",
"3  c #C17668",
"4  c #202060",
"5  c #1C2B63",
"6  c #1B2F5E",
"7  c #1D2E61",
"8  c #1E3060",
"9  c #1D3060",
"0  c #584E5D",
"q  c #A8765A",
"w  c #1C2F5E",
"e  c #616477",
"r  c #BDAE97",
"t  c #2B3862",
"y  c #F6CB98",
"u  c #273766",
"i  c #000055",
"p  c #1C3060",
"a  c #ECEDF8",
"s  c #D7D8F2",
"d  c #1C2F5F",
"f  c #303B63",
"g  c #1E3061",
"h  c #EBB48A",
"j  c #223364",
"k  c #EAAB70",
"l  c #CBCBE7",
"z  c #606D91",
"x  c #9F705C",
"c  c #F9E0B4",
"v  c #E59E69",
"b  c #4F538B",
"n  c #F7DAAB",
"m  c #F9F9FC",
"M  c #BABFCE",
"N  c #303A62",
"B  c #323B62",
"V  c #534862",
"C  c #725468",
"Z  c #FEFEFE",
"A  c #FAFAFB",
"S  c #8F7172",
"D  c #3F4164",
"F  c #313C64",
"G  c #DCA788",
"H  c #C89599",
"J  c #E6D0D2",
"K  c #E8AD86",
"L  c #C18D87",
"P  c #E1D5CE",
"I  c #8E667B",
"U  c #1D2F60",
"Y  c #AC696F",
"T  c #374067",
"R  c #746FB1",
"E  c #283662",
"W  c None",
"Q  c #3A4478",
"!  c gray99",
"~  c #2E3C6E",
"^  c #605D9A",
"/  c #DCDEF1",
"(  c #D5B49B",
")  c #C1A195",
"_  c #6A5A65",
"`  c #334167",
"'  c #D6B2A7",
"]  c #E2C9C3",
"[  c #E0BBAC",
"{  c #E1A274",
"}  c #BC805A",
"|  c #C08076",
" . c #625564",
".. c #DEA382",
"X. c #464661",
"o. c #F9F1EB",
"O. c #514B5E",
"+. c #AD706C",
"@. c #F0C8A9",
"#. c #D68E5A",
"$. c #50536D",
"%. c #C47D62",
"&. c #BC8C76",
"*. c #AF7C5C",
"=. c #454C7F",
"-. c #9B7D87",
";. c #8D6262",
":. c #A58383",
">. c #B18B87",
",. c #885B69",
"<. c #886E70",
"1. c #A2A9CA",
"2. c #AFA191",
"3. c #58516C",
"4. c #AF9092",
"5. c #EFC093",
"6. c #FFD9A5",
"7. c #314068",
"8. c #888485",
"9. c #D5BFC3",
"0. c #E29A64",
"q. c #E5E4F2",
"w. c #D2D0EA",
"e. c #AE8476",
"r. c #C59194",
"t. c #D89D83",
"y. c #E5D0C9",
"u. c #6E595C",
"i. c #564C5E",
"p. c #AEA9DD",
"a. c #655866",
"s. c #5F6B94",
"d. c #9D656A",
"f. c #756D89",
"g. c #876E82",
"h. c #F5DDCA",
"j. c #616177",
"k. c #9A7777",
"l. c #4D4363",
"z. c #C69688",
"x. c #E5E7F2",
"c. c #CA8F67",
"v. c #9E8090",
"b. c #F7B485",
"n. c #8E6A66",
"m. c #C7A384",
"M. c #5F6997",
"N. c #E8A57E",
"B. c #675C71",
"V. c #BD9681",
"C. c #B67267",
"Z. c #FBD3A1",
"A. c #8A7671",
"S. c #E8C192",
"D. c #6E707C",
"F. c #E4C7A5",
"G. c #868182",
"H. c #D5C2A0",
"J. c #F1D9C9",
"K. c #7A5F5C",
"L. c #8982C3",
"P. c #B6BBD7",
"I. c #D7916C",
"U. c #CA855B",
"Y. c #5E5669",
"T. c #697598",
"R. c #77648E",
"E. c #79656D",
"W. c #C8C7DC",
"Q. c #C5C1E0",
"!. c #C0AFBA",
"~. c #C4B9C6",
"^. c #C7A4AE",
"/. c #B4BAD6",
"(. c #BB7867",
"). c #8F98B9",
"_. c #847AC7",
"`. c #8D8CBE",
"'. c #6B66A7",
"]. c #41466D",
"[. c #7E6A7B",
"{. c #87665B",
"}. c #8E7588",
"|. c #BC8761",
" X c #9C98CD",
".X c #7B82AD",
"XX c #39406F",
"oX c #FCC391",
"OX c #B6A490",
"+X c #8E97B8",
"@X c #AD7A69",
"#X c #A88D79",
"$X c #CE997B",
"%X c #826B6F",
"&X c #CFBD9E",
"*X c #4B5A81",
"=X c #9E8C87",
"-X c #414A69",
";X c #CFB394",
":X c #31406C",
">X c #797980",
",X c #575E74",
"<X c #404882",
"1X c #FFE0AB",
"2X c #1C2F60",
"3X c #686B79",
"4X c #4F5C8B",
"5X c #555273",
"6X c #E0DAE5",
"7X c #606D8F",
"8X c #DDAC98",
"9X c #F4F4FA",
"0X c #626598",
"qX c #9E6B79",
"wX c #785B5F",
"eX c #B7B6DD",
"rX c #999BC8",
"tX c #A9B0C2",
"yX c #BBA19C",
"uX c #A59FD7",
"iX c #EBECF8",
"pX c #44486E",
"aX c #857192",
"sX c #D5D7F3",
"dX c #1C305F",
"fX c #D9AB95",
"gX c #76677F",
"hX c #E0E2F5",
"jX c #D1A18B",
"kX c #1B2F60",
"lX c #D3D5F1",
"zX c #837090",
"xX c #CACDEF",
"cX c #C9CBEF",
"vX c #30416E",
"bX c #DDC8A2",
"nX c #EFD6A8",
"mX c #8A93AC",
"MX c #575B9B",
"NX c #1C2F60",
"BX c #F6F7FB",
"VX c #707CA7",
"CX c #966762",
"ZX c #534E72",
"AX c #E5E8EC",
"SX c #1C2F60",
"DX c #1C2F60",
"FX c #DDB793",
"GX c #59668A",
"HX c #EACDA2",
"JX c #E0935D",
"KX c #AC917F",
"LX c #1C00F7",
"PX c #009525",
"IX c #47704C",
"UX c #47704C",
/* pixels */
"UXUXUXUXUXUXUXUXUXUXUXUXUXUXUXUXUXUXUXUXUXUXUXUXUXUXUXUXUXUXUXUXUXUXUXUXUXUXUXUXUXUXUXUXUXUXUXUXUXUX",
"UXUXUXUXUXUXUXUXUXUXUXUXUXUXUXUXUXUXUXUXUXUXUXUXUXUXUXUXUXUXUXUXUXUXUXUXUXUXUXUXUXUXUXUXUXUXUXUXUXUX",
"UXUXUXUXUXUXUXUXUXUXUXUXUXUXUXUXUXUXUXUXUXUXUXUXUXUXUXUXUXUXUXUXUXUXUXUXUXUXUXUXUXUXUXUXUXUXUXUXUXUX",
"UXUXUXUXUXUXUXUXUXUXUXUXUXUXUXUXUXUXUXUXUXUXUXUXUXUXUXUXUXUXUXUXUXUXUXUXUXUXUXUXUXUXUXUXUXUXUXUXUXUX",
"UXUXUXUXUXUXUXUXUXUXUXUXUXUXUXUX4 6 8 . . . . . . . . . . . . . . . w & UXUXUXUXUXUXUXUXUXUXUXUXUXUX",
"UXUXUXUXUXUXUXUXUXUXUXUXUXUXUXUX5 7 9 X X X X X X X X X X X X X X X U w UXUXUXUXUXUXUXUXUXUXUXUXUXUX",
"UXUXUXUXUXUXUXUXUXUXUXUXUXUX4 5 E N B o o o o o o o o o o o o o o o f t & ; i UXUXUXUXUXUXUXUXUXUXUX",
"UXUXUXUXUXUXUXUXUXUXUXUXUXUX6 7 N a.K.@ @ @ @ @ @ @ @ @ @ @ @ @ @ @ u.X.: p ; UXUXUXUXUXUXUXUXUXUXUX",
"UXUXUXUXUXUXUXUXUXUXUXUXUXUX8 9 B K.} + + + + + + + + + + + + + + + x i.d : & UXUXUXUXUXUXUXUXUXUXUX",
"UXUXUXUXUXUXUXUXUXUXUX4 6 8 T O. .x #.                              } @ i.X.t w & UXUXUXUXUXUXUXUXUX",
"UXUXUXUXUXUXUXUXUXUXUX5 7 9 O.{.*.U.=                               + } x u.f U w UXUXUXUXUXUXUXUXUX",
"UXUXUXUXUXUXUXUXUXUXUX% # $ 0 q                                         + @ o X . UXUXUXUXUXUXUXUXUX",
"UXUXUXUXUXUXUXUXUXUXUX% # $ 0 q                                         + @ o X . UXUXUXUXUXUXUXUXUX",
"UXUXUXUXUXUXUXUXUXUXUX% # $ 0 q                                         + @ o X . UXUXUXUXUXUXUXUXUX",
"UXUXUXUXUXUXUXUXUXUXUX% # $ 0 q             v ..G K h K G { 0.          + @ o X . UXUXUXUXUXUXUXUXUX",
"UXUXUXUXUXUXUXUXUXUXUX% # $ 0 q           0.G ' 9.y.J.] 9.' {           + @ o X . UXUXUXUXUXUXUXUXUX",
"% & ; i UXUXUXUXUXUXUX% # $ 0 q           0.' W.s a m q.w.9.G           + @ o X . UXUXUXUXUXUXUXUXUX",
"# : p ; UXUXUXUXUXUXUX% # $ 0 q           v [ 6Xa 9Xm a q.] K           + @ o X . UXUXUXUXUXUXUXUXUX",
"$ d : & UXUXUXUXUXUXUX% # $ 0 q           v @.o.m m > m m J.h           + @ o X . UXUXUXUXUXUXUXUXUX",
"g $ # % UXUXUXUXUXUXUX% # $ V x 2 2 2 2 2 I.8X] J J J J J [ t.2 2 2 2 2 %.wXo X . UXUXUXUXUXUXUXUXUX",
"g $ # % UXUXUXUXUXUXUX% # $ l.;.3 3 3 3 3 3 L r.H H H H H L | 3 3 3 3 3 +.C o X . UXUXUXUXUXUXUXUXUX",
"$ d : & UXUXUXUXUX4 5 E N B V ,.Y Y * * * * * * * * * * * * * * * * * Y d.C D f t & ; i UXUXUXUXUXUX",
"# : p ; UXUXUXUXUX6 7 N a.<.S I I +.%., , , , , , , , , , , , , , , (.qXI I S E.$.: p ; UXUXUXUXUXUX",
"% & ; i UXUXUXUXUX8 9 B <.W L }.R.k.2 = = = = = = = = = = = = = = = | g.R.:.t.e.Y.d : & UXUXUXUXUXUX",
"UXUXUXUXUXUXUXUXUX. X F S N.t.v.zX>.{ W |.*.c.k k k k k k W |.*.c.k $X-.aXL K &. .$ # % UXUXUXUXUXUX",
"UXUXUXUXUXUXUXUXUX. X F S N...>.v.) 5.m.A._ #XS.y y y y y m.A._ #XS.( 4.v.z.b.&. .$ # % UXUXUXUXUXUX",
"UXUXUXUXUXUXUXUXUX8 9 B <.W t.L 4.( n r e - < 1 O O O O O r e - < 1 F.) >.z...e.Y.d : & UXUXUXUXUXUX",
"UXUXUXUXUXUXUXUXUX6 7 N a.<.k.-.4.( n r e - < 1 O O O O O r e - < 1 F.) :.-.S E.$.: p ; UXUXUXUXUXUX",
"UXUXUXUXUXUXUXUXUX4 5 E N B 3.g.4.( n r e - < 1 O O O O O r e - < 1 F.) -.e D f t & ; i UXUXUXUXUXUX",
"UXUXUXUXUXUXUXUXUXUXUX5 7 9 ].j.}.) y ;X< D.OXnXO O O O O &X< D.2.y ( =XgX5Xf U w UXUXUXUXUXUXUXUXUX",
"UXUXUXUXUXUXUXUXUXUXUX4 6 8 T ].3.:.h 5.;Xr bXn O O O O O 1 &Xr FXoXm.[.pXX.t w & UXUXUXUXUXUXUXUXUX",
"UXUXUXUXUXUXUXUXUXUXUXUXUXUX. X F %X$Xh y n n c c c c c c c n Z.5.K e.3.$ # % UXUXUXUXUXUXUXUXUXUXUX",
"UXUXUXUXUXUXUXUXUXUXUXUXUXUX. X u 3.%X:.z.fX[ y.P P P P P ] ' jX>.k.B.D $ # % UXUXUXUXUXUXUXUXUXUXUX",
"UXUXUXUXUXUXUXUXUXUXUXUXUXUX. X g u F 3.I | ^.Q.l l l l l !.r.+.C D o j $ # % UXUXUXUXUXUXUXUXUXUXUX",
"UXUXUXUXUXUXUXUXUXUXUX4 6 8 T O.0 V l.C d.| ^.w.s s s s s ~.r.C.,.V l.V i.X.t w & UXUXUXUXUXUXUXUXUX",
"UXUXUXUXUXUXUXUXUXUXUX5 7 9 O.{.q CX,.d.(.I.[ q.a a a a a y.G U.+.,.;.x x u.f U w UXUXUXUXUXUXUXUXUX",
"UXUXUXUXUXUXUXUXUX4 5 E 7.` _ *.JX%.Y C.2 v @.o.> > > > > h.h = %.Y C.2 #.n.-Xf t & ; i UXUXUXUXUXUX",
"UXUXUXUXUXUXUXUXUX6 7 7.3X8.KXW v @XC ;.} v @.o.> > > > > h.h #.x C n.c.{ V.=X>X$.: p ; UXUXUXUXUXUX",
"UXUXUXUXUXUXUXUXUX8 9 ` 8.H.y b.N.S D  .q v @.o.> > > > > h.h + ;.D _ &.b.5.HX2.j.d : & UXUXUXUXUXUX",
"UXUXUXUXUXUXUXUXUX. X - < 1 6.y h A.F V n.&.yX~.M M M M M !.V.@X_ o B.V.oXZ.1Xr e $ # % UXUXUXUXUXUX",
"UXUXUXUXUXUXUXUXUX. X - < 1 1X6.S.G.- XXB.g.f.z z z z z z f.f.[.ZXu e OX6.6.O r e $ # % UXUXUXUXUXUX",
"UXUXUXUXUXUXUXUXUX8 9 ` 8.H.1 1 H.G.- ~ b ^ =.u j g g g j Q b ^ <Xj ,X2.1 1 1 2.j.d : & UXUXUXUXUXUX",
"UXUXUXUXUXUXUXUXUX6 7 7.3X8.< < G.,Xu Q ^ R ^ =.XXu g ~ Q b '.R b u -XD.< < < >X$.: p ; UXUXUXUXUXUX",
"UXUXUXUXUXUXUXUXUX4 5 E 7.` - - - u g <XR L.R ^ =.~ j Q b '._._.MXu j F - - - f t & ; i UXUXUXUXUXUX",
"UXUXUXUXUXUXUXUXUXUXUX5 7 9 2X$ j =.GX.X Xp. XL.0XQ u b R `.uXp.`.T.*X- SXDXkXU w UXUXUXUXUXUXUXUXUX",
"UXUXUXUXUXUXUXUXUXUXUX4 6 8 # 2X~ T.tXW.w.s Q.p..Xb ~ z rXeXl s l M mX*XNXdXt w & UXUXUXUXUXUXUXUXUX",
"UXUXUXUXUXUXUXUXUXUXUXUXUXUX8 9 vX).AX! ! BXhXxX).4XvXVXP.sXiX! ! ! P.7Xd : & UXUXUXUXUXUXUXUXUXUXUX",
"UXUXUXUXUXUXUXUXUXUXUXUXUXUX6 7 T +Xx.A A A x.cX+Xs.T s./.lXx.A A A /.s.: p ; UXUXUXUXUXUXUXUXUXUXUX",
"UXUXUXUXUXUXUXUXUXUXUXUXUXUX4 5 :X1./ Z Z Z / / 1.M.:XM.1./ / Z Z Z 1.M.& ; i UXUXUXUXUXUXUXUXUXUXUX",
"UXUXUXUXUXUXUXUXUXUXUXUXUXUXUXUXUXUXUXUXUXUXUXUXUXUXUXUXUXUXUXUXUXUXUXUXUXUXUXUXUXUXUXUXUXUXUXUXUXUX"
};
