/* XPM */
static char *_e710a644781446c83ef9c0628b1d7c6ooUM3juSl1f27VVv[] = {
/* columns rows colors chars-per-pixel */
"50 50 30 1 ",
"  c #86C06C",
". c #B8DEA3",
"X c #78B167",
"o c #89C26F",
"O c #AAD694",
"+ c #B0DA9B",
"@ c #8FC676",
"# c #92C779",
"$ c #8CC473",
"% c #9CCE85",
"& c #98CC80",
"* c #72A96A",
"= c #A4D38D",
"- c #95CA7C",
"; c #629B62",
": c #7EB869",
"> c #82B675",
", c #C8E9B5",
"< c #59925E",
"1 c #D0EEBE",
"2 c #C0E5AC",
"3 c #9ECC8E",
"4 c #83BD6B",
"5 c #3E7654",
"6 c #8FC082",
"7 c #679F66",
"8 c #488158",
"9 c #4C845A",
"0 c #568D5E",
"q c #91C381",
/* pixels */
"                                                  ",
"                                                  ",
"                                                  ",
"                                                  ",
"                                                  ",
"                              $#%&#oo#&&#$        ",
"                              #=.+%$@%++=#        ",
"                              %.1,O#-+,,+&        ",
"                              &+,.3>>3.2O-        ",
"                              #%O3>;7>3O%@        ",
"                              o$#>;897>#$o        ",
"                                 X;89;X           ",
"                                 :*;;*:           ",
"                                 4:XX:4           ",
"                                                  ",
"                                                  ",
"                                                  ",
"        o$@$$o o$@$o                              ",
"        @%==&$$&=O%@                              ",
"        -O22O#@=.2O&                              ",
"        &+1,+#$O,1.%                              ",
"        #=.+6**6O.=-                              ",
"        $-%q*<0*6%-$                              ",
"           X<55<*                                 ",
"           :7<07X                                 ",
"           4X**X:                                 ",
"             44                                   ",
"                                                  ",
"                                                  ",
"                                                  ",
"                              $#%&#oo#&&#$        ",
"                              #=.+%$@%++=#        ",
"                              %.1,O#-+,,+&        ",
"                              -+,.3>>3.2O-        ",
"                              #%O3>;7>3O%@        ",
"                              o$#>;897>#$o        ",
"                                 X;89;X           ",
"                                 :*;;*:           ",
"                                 4:XX:4           ",
"                                                  ",
"                                                  ",
"                                                  ",
"        o$@$$o o$@$o                              ",
"        @%==&$$&=O%@                              ",
"        -O22O#@=.2O&                              ",
"        &+1,+#$O,1.%                              ",
"        #=.+6**6O.=-                              ",
"        $-%q*<0*6%-$                              ",
"           X<55<*                                 ",
"           X<55<*                                 "
};
