/* XPM */
static char *result[] = {
/* columns rows colors chars-per-pixel */
"50 50 212 2 ",
"   c #1C2F5F",
".  c #1C305F",
"X  c #2F385F",
"o  c #30395F",
"O  c #1B2F60",
"+  c #1C2E60",
"@  c #1C2F60",
"#  c #1D2F60",
"$  c #1D3060",
"%  c #283463",
"&  c #2D3962",
"*  c #2A3867",
"=  c #363F66",
"-  c #3E3F62",
";  c #503B73",
":  c #334067",
">  c #314068",
",  c #324068",
"<  c #37446C",
"1  c #3B4471",
"2  c #344178",
"3  c #4A475E",
"4  c #554D5E",
"5  c #564C5E",
"6  c #584E5D",
"7  c #6C565F",
"8  c #6E595C",
"9  c #785B5F",
"0  c #7A5F5C",
"q  c #44486E",
"w  c #5C4E64",
"e  c #524B6D",
"r  c #5A576C",
"t  c #444779",
"y  c #484C7B",
"u  c #455175",
"i  c #555273",
"p  c #575479",
"a  c #6A4D69",
"s  c #6E5363",
"d  c #625A78",
"f  c #7F5E7F",
"g  c #606577",
"h  c #606579",
"j  c #696C7B",
"k  c #796675",
"l  c #76677F",
"z  c #80625B",
"x  c #87665B",
"c  c #87675D",
"v  c #9E725A",
"b  c #A8765A",
"n  c #B07A59",
"m  c #844B7A",
"M  c #9B5A77",
"N  c #8F606B",
"B  c #88746F",
"V  c #9C6271",
"C  c #996971",
"Z  c #9A657B",
"A  c #9F6A7A",
"S  c #927475",
"D  c #AF6F66",
"F  c #AA666E",
"G  c #B76D6D",
"H  c #B87763",
"J  c #BB726A",
"K  c #B8776C",
"L  c #A46272",
"P  c #A06978",
"I  c #B36C71",
"U  c #A8727D",
"Y  c #B3757E",
"T  c #B47C7F",
"R  c #C57A65",
"E  c #CB7F63",
"W  c #BD805A",
"Q  c #BC8761",
"!  c #B8826E",
"~  c #A7897C",
"^  c #C98759",
"/  c #D08B58",
"(  c #D28C58",
")  c #D5885E",
"_  c #DA8E5A",
"`  c #DF9159",
"'  c #E49557",
"]  c #E29459",
"[  c #E79A5D",
"{  c #CF8461",
"}  c #D59267",
"|  c #D89C6A",
" . c #C68379",
".. c #D38C74",
"X. c #D69578",
"o. c #E49B66",
"O. c #E69F68",
"+. c #E6A474",
"@. c #F0AA7A",
"#. c #683984",
"$. c #3F4A84",
"%. c #4D548A",
"&. c #4F5594",
"*. c #5A5B99",
"=. c #63598D",
"-. c #795F88",
";. c #55628C",
":. c #58658A",
">. c #5E6992",
",. c #6B6194",
"<. c #636F91",
"1. c #7A6D96",
"2. c #687399",
"3. c #68759B",
"4. c #6062A5",
"5. c #6E68A8",
"6. c #7675A8",
"7. c #6B6AB2",
"8. c #7874BE",
"9. c #804883",
"0. c #825A8A",
"q. c #8C6486",
"w. c #82688C",
"e. c #866A8C",
"r. c #897289",
"t. c #9B7C8C",
"y. c #847195",
"u. c #917A92",
"i. c #A06E83",
"p. c #A47F8E",
"a. c #857CC7",
"s. c #898384",
"d. c #888485",
"f. c #8D8987",
"g. c #959089",
"h. c #948194",
"j. c #9F8190",
"k. c #97889D",
"l. c #A6858F",
"z. c #BB8280",
"x. c #B0878C",
"c. c #A98B93",
"v. c #AF8D91",
"b. c #A79996",
"n. c #A9939B",
"m. c #B99992",
"M. c #BC9E99",
"N. c #B2A693",
"B. c #BBAD97",
"V. c #898ABD",
"C. c #949DB4",
"Z. c #9D9DBE",
"A. c #B695B3",
"S. c #BBA6A1",
"D. c #B4A9AA",
"F. c #C68D83",
"G. c #C9928F",
"H. c #D0998A",
"J. c #C19A92",
"K. c #C79A9B",
"L. c #C7A683",
"P. c #DFA084",
"I. c #CAA395",
"U. c #D2AD98",
"Y. c #D0B399",
"T. c #DDB599",
"R. c #E8B280",
"E. c #F1B18D",
"W. c #E5B290",
"Q. c #E9BC90",
"!. c #E7BE9B",
"~. c #F8BE90",
"^. c #CBA7AD",
"/. c #C8AEA9",
"(. c #D2BCA7",
"). c #DBB7B2",
"_. c #E8C49A",
"`. c #FACF9E",
"'. c #D8C2A3",
"]. c #E6C8A2",
"[. c #F0C8A9",
"{. c #E8D1A6",
"}. c #FFD9A5",
"|. c #F3D8AB",
" X c #F3D6BF",
".X c #FFE3AE",
"XX c #908BC1",
"oX c #9086D7",
"OX c #9F9DD0",
"+X c #A0A6C7",
"@X c #ADB3CA",
"#X c #B9BECD",
"$X c #BBBFCE",
"%X c #B0A2D6",
"&X c #B4BAD6",
"*X c #B6B0E0",
"=X c #B3B8E0",
"-X c #C7BCD8",
";X c #CFC7CF",
":X c #E4CCCB",
">X c #CBCCE0",
",X c #D0CCE7",
"<X c #DBD5EB",
"1X c #D3D5F1",
"2X c #D5D7F3",
"3X c #E9E2E8",
"4X c #FAF2EB",
"5X c #EBEBF7",
"6X c #EBECF8",
"7X c #FBFBFB",
"8X c gray99",
"9X c None",
/* pixels */
"9X9X9X9X9X9X9X9X9X9X9X9X9X9X9X9X9X9X9X9X9X9X9X9X9X9X9X9X9X9X9X9X9X9X9X9X9X9X9X9X9X9X9X9X9X9X9X9X9X9X",
"9X9X9X9X9X9X9X9X9X9X9X9X9X9X9X9X9X9X9X9X9X9X9X9X9X9X9X9X9X9X9X9X9X9X9X9X9X9X9X9X9X9X9X9X9X9X9X9X9X9X",
"9X9X9X9X9X9X9X9X9X9X9X9X9X9X9X9X9X9X9X9X9X9X9X9X9X9X9X9X9X9X9X9X9X9X9X9X9X9X9X9X9X9X9X9X9X9X9X9X9X9X",
"9X9X9X9X9X9X9X9X9X9X9X9X9X9X9X9X9X9X9X9X9X9X9X9X9X9X9X9X9X9X9X9X9X9X9X9X9X9X9X9X9X9X9X9X9X9X9X9X9X9X",
"9X9X9X9X9X9X9X9X9X9X9X9X9X9X9X9X9X9X9X9X9X9X9X9X9X9X9X9X9X9X9X9X9X9X9X9X9X9X9X9X9X9X9X9X9X9X9X9X9X9X",
"9X9X9X9X9X9X9X9X9X9X9X9X9X9X9X9X9X9X$ # # # # # # # # # # # # # # # 9X9X9X9X9X9X9X9X9X9X9X9X9X9X9X9X",
"9X9X9X9X9X9X9X9X9X9X9X9X9X9X9X9X9XX o o o o o o o o o o o o o o o o & 9X9X9X9X9X9X9X9X9X9X9X9X9X9X9X",
"9X9X9X9X9X9X9X9X9X9X9X9X9X9X9X9XX 4 0 z z z z z z z z z z z z z z z 8 3 9X9X9X9X9X9X9X9X9X9X9X9X9X9X",
"9X9X9X9X9X9X9X9X9X9X9X9X9X9X9X$ o 0 W / / / / / / / / / / / / / / / v 5   9X9X9X9X9X9X9X9X9X9X9X9X9X",
"9X9X9X9X9X9X9X9X9X9X9X9X9X9X= 4 7 v _ ' ' ' ' ' ' ' ' ' ' ' ' ' ' ' W z 5 3 9X9X9X9X9X9X9X9X9X9X9X9X",
"9X9X9X9X9X9X9X9X9X9X9X9X9X$ 4 x n ^ ` ' ' ' ' ' ' ' ' ' ' ' ' ' ' ' ( W v 8 & 9X9X9X9X9X9X9X9X9X9X9X",
"9X9X9X9X9X9X9X9X9X9X9X9X+ @ 6 b ' ' ' ' ' ' ' ' ' ' ' ' ' ' ' ' ' ' ' ' / z o # 9X9X9X9X9X9X9X9X9X9X",
"9X9X9X9X9X9X9X9X9X9X9X9X+ @ 6 b ' ' ' ' ' ' ' ' ' ' ' ' ' ' ' ' ' ' ' ' / z o # 9X9X9X9X9X9X9X9X9X9X",
"9X9X9X9X9X9X9X9X9X9X9X9X+ @ 6 b ' ' ' ' ' ' ' ' ' ' ' ' ' ' ' ' ' ' ' ' / z o # 9X9X9X9X9X9X9X9X9X9X",
"9X9X9X9X9X9X9X9X9X9X9X9X. O r ~ R.+.[ ' ' ' ' ' ' ' ' ' ' ' ' ' ' ' ' ' / z o # 9X9X9X9X9X9X9X9X9X9X",
"9X9X9X9X9X9X9X9X9X9X9XO @ @ h D. XQ.o.' ' ' ' ' ' ' ' ' ' ' ' ' ' ' ' ' / z o # 9X9X9X9X9X9X9X9X9X9X",
"9X9X9X9X9X9X9X9X9X9X& o o % <.$X4X[.O.' ' ' ' ' ' ' ' ' ' ' ' ' ' ' ' ' / z o # 9X9X9X9X9X9X9X9X9X9X",
"9X9X9X9X9X9X9X9X9X3 8 z 7 a h.;X4X[.O.' ' ' ' ' ' ' ' ' ' ' ' ' ' ' ' ' / z o # 9X9X9X9X9X9X9X9X9X9X",
"9X9X9X9X9X9X9X9X  5 v ^ H F G.:X4X[.O.' ' ' ' ' ' ' ' ' ' ' ' ' ' ' ' ' / z o # 9X9X9X9X9X9X9X9X9X9X",
"9X9X9X9X9X9X9X+ @ 6 b ` ) R G.).:XW.o.' ' ' ' ' ' ' ' ' ' ' ' ' ' ' ` _ W 9 o # 9X9X9X9X9X9X9X9X9X9X",
"9X9X9X9X9X9X9X+ @ 6 b ] _ ) ..G.G.X.] ' ' ' ' ' ' ' ' ' ' ' ' ' ' ' _ E D s % # 9X9X9X9X9X9X9X9X9X9X",
"9X9X9X9X9X9X9X9X  5 v ( _ ] ) R J E _ ` ` ` ` ` ` ` ` ` ` ` ` ` ` ` { J V a % # 9X9X9X9X9X9X9X9X9X9X",
"9X9X9X9X9X9X9X9X9X3 8 c n _ _ ) E E E E E E E E E E E E E E E E E E K A f e % # 9X9X9X9X9X9X9X9X9X9X",
"9X9X9X9X9X9X9X9X9X9X& - c ( ] ` _ E J G G G G G G G G G G G G G G G P q.=.t % # 9X9X9X9X9X9X9X9X9X9X",
"9X9X9X9X9X9X9X9X9X9X9X& 8 v Q | +.! N C T F.T A U z.F.F.F.z.U Z Z Z q.w.,.y % # 9X9X9X9X9X9X9X9X9X9X",
"9X9X9X9X9X9X9X9X9X9X9X9X3 5 B L.Q.~ w k m.T.v.e.t.I.!.!.!.I.t.-.-.-.w.r.r.p * # 9X9X9X9X9X9X9X9X9X9X",
"9X9X9X9X9X9X9X9X9X9X9X9X+ @ h B.{.f.: h B.|.S.1.k.(..X.X.X(.k.,.,.,.1.u.t.d * # 9X9X9X9X9X9X9X9X9X9X",
"9X9X9X9X9X9X9X9X9X9X9X9X+ @ h B.{.f.: h B.|.S.u.n.'..X.X.X'.n.y.y.y.u.j.t.d * # 9X9X9X9X9X9X9X9X9X9X",
"9X9X9X9X9X9X9X9X9X9X9X9X+ @ h B.{.f.: h B.|.Y.c.M.]..X.X.X].M.j.j.j.j.l.t.d * # 9X9X9X9X9X9X9X9X9X9X",
"9X9X9X9X9X9X9X9X9X9X9X9X9X$ g g.N.f.j f.Y.`.U.v.J.!.`.`.].Y.m.l.l.l.t.r.l i & 9X9X9X9X9X9X9X9X9X9X9X",
"9X9X9X9X9X9X9X9X9X9X9X9X9X9Xu g j f.N.Y.Q.~.I.v.J.W.~.W.I.m.v.l.l.l.r.d q 1 9X9X9X9X9X9X9X9X9X9X9X9X",
"9X9X9X9X9X9X9X9X9X9X9X9X9X9X9X$ , d.'.].~.E.H.x.F.P.@.H.x.p.p.t.t.t.l q   9X9X9X9X9X9X9X9X9X9X9X9X9X",
"9X9X9X9X9X9X9X9X9X9X9X9X9X9X9X9X> g d.b./.).K.T T  ... .T i.q.0.-.d i 1 9X9X9X9X9X9X9X9X9X9X9X9X9X9X",
"9X9X9X9X9X9X9X9X9X9X9X9X9X9X9X9X9X> , >.Z.-XA.Y I G G I I M 9.#.; * & 9X9X9X9X9X9X9X9X9X9X9X9X9X9X9X",
"9X9X9X9X9X9X9X9X9X9X9X9X9X9X9X9X9X+ @ ;.+X,X^. .G L M F J I M m ; % # 9X9X9X9X9X9X9X9X9X9X9X9X9X9X9X",
"9X9X9X9X9X9X9X9X9X9X9X9X9X9X9X9X9X+ @ >.@X3X).} J M m F E { R D s % # 9X9X9X9X9X9X9X9X9X9X9X9X9X9X9X",
"9X9X9X9X9X9X9X9X9X9X9X9X9X9X9X9X9X+ @ <.$X4X[.O.H m #.L _ [ [ } c o # 9X9X9X9X9X9X9X9X9X9X9X9X9X9X9X",
"9X9X9X9X9X9X9X9X9X9X9X9X9X9X9X9X9X+ @ <.$X4X[.O.H a ; C o.@.R.R.B : # 9X9X9X9X9X9X9X9X9X9X9X9X9X9X9X",
"9X9X9X9X9X9X9X9X9X9X9X9X9X9X9X9X9X+ @ <.$X4X[.O.b w - S +.~.`.].s.: # 9X9X9X9X9X9X9X9X9X9X9X9X9X9X9X",
"9X9X9X9X9X9X9X9X9X9X9X9X9X9X9X9X9X+ @ ;.+X<X).H.S e : S W.`.}.{.f.: # 9X9X9X9X9X9X9X9X9X9X9X9X9X9X9X",
"9X9X9X9X9X9X9X9X9X9X9X9X9X9X9X9X9X+ @ %.V.*X%XA.y.y : s._.}..X{.f.: # 9X9X9X9X9X9X9X9X9X9X9X9X9X9X9X",
"9X9X9X9X9X9X9X9X9X9X9X9X9X9X9X9X9X9X  $.7.oXoXoX8.%.< s.'.{.{.'.d., $ 9X9X9X9X9X9X9X9X9X9X9X9X9X9X9X",
"9X9X9X9X9X9X9X9X9X9X9X9X9X9X9X9X9X9X9X1 &.4.8.oX8.*.y h s.f.f.d.g > 9X9X9X9X9X9X9X9X9X9X9X9X9X9X9X9X",
"9X9X9X9X9X9X9X9X9X9X9X9X9X9X9X9X9X9X9X9X& 2 4.oXa.5.%.y < : : , > 9X9X9X9X9X9X9X9X9X9X9X9X9X9X9X9X9X",
"9X9X9X9X9X9X9X9X9X9X9X9X9X9X9X9X9X9X9Xu :.<.V.%XOXXX6.%.* O @ $ 9X9X9X9X9X9X9X9X9X9X9X9X9X9X9X9X9X9X",
"9X9X9X9X9X9X9X9X9X9X9X9X9X9X9X9X9X9X$ :.C.$X>X<X,X*XOX>.* @ + 9X9X9X9X9X9X9X9X9X9X9X9X9X9X9X9X9X9X9X",
"9X9X9X9X9X9X9X9X9X9X9X9X9X9X9X9X9X9X  3.#X8X8X8X6X2X=X3., $ 9X9X9X9X9X9X9X9X9X9X9X9X9X9X9X9X9X9X9X9X",
"9X9X9X9X9X9X9X9X9X9X9X9X9X9X9X9X9X9X9X2.&X7X7X7X5X1X&X2.= 9X9X9X9X9X9X9X9X9X9X9X9X9X9X9X9X9X9X9X9X9X",
"9X9X9X9X9X9X9X9X9X9X9X9X9X9X9X9X9X9X9X9X9X9X9X9X9X9X9X9X9X9X9X9X9X9X9X9X9X9X9X9X9X9X9X9X9X9X9X9X9X9X",
"9X9X9X9X9X9X9X9X9X9X9X9X9X9X9X9X9X9X9X9X9X9X9X9X9X9X9X9X9X9X9X9X9X9X9X9X9X9X9X9X9X9X9X9X9X9X9X9X9X9X"
};
