/* XPM */
static char *c5223697dc264ced95c49dbbdc047897uc0tSyYfStKqltH4[] = {
/* columns rows colors chars-per-pixel */
"49 49 125 2 ",
"   c black",
".  c #070B06",
"X  c #070C08",
"o  c #0E0E0E",
"O  c #0B1009",
"+  c #1C1919",
"@  c #2B0000",
"#  c #380000",
"$  c #172012",
"%  c #1C2917",
"&  c #25351E",
"*  c #2A2525",
"=  c #2E2929",
"-  c gray18",
";  c #2A3024",
":  c #4E0000",
">  c #5C0000",
",  c #5C0704",
"<  c #640000",
"1  c #6A0000",
"2  c #7D0503",
"3  c #7F150C",
"4  c #731515",
"5  c #413A3A",
"6  c #354B2A",
"7  c #364D2B",
"8  c #374D2D",
"9  c #39512E",
"0  c #284B36",
"q  c #384B33",
"w  c #3C5032",
"e  c #3B5530",
"r  c #395D3C",
"t  c #43543A",
"y  c #45553D",
"u  c #475A3C",
"i  c #436036",
"p  c #556137",
"a  c #3E7654",
"s  c #4B4545",
"d  c #464947",
"f  c #534A4A",
"g  c #524F4F",
"h  c #435D45",
"j  c gray36",
"k  c #645959",
"l  c #517542",
"z  c #567B45",
"x  c #646464",
"c  c #796B6B",
"v  c gray46",
"b  c #800000",
"n  c #800707",
"m  c #8E0000",
"M  c #8C0A0A",
"N  c #960402",
"B  c #9B0000",
"V  c #AC0000",
"C  c #B80000",
"Z  c #862727",
"A  c #D40000",
"S  c #DE0100",
"D  c #E30000",
"F  c #EA0000",
"G  c #EE0000",
"H  c #F10000",
"J  c #FB0000",
"K  c #FE0000",
"L  c #8B7B7B",
"P  c #5D854B",
"I  c #488158",
"U  c #4C845A",
"Y  c #568D5E",
"T  c #5F8D58",
"R  c #59925E",
"E  c #618B4E",
"W  c #699654",
"Q  c #76A95F",
"!  c #629B62",
"~  c #679F66",
"^  c #77AB60",
"/  c #72A96A",
"(  c #78B167",
")  c #7EB869",
"_  c #80B767",
"`  c #83BD6B",
"'  c #87BE6D",
"]  c #88BF6E",
"[  c #82B675",
"{  c #86C06C",
"}  c #89C26F",
"|  c #8CC473",
" . c #8FC676",
".. c #92C779",
"X. c #95CA7C",
"o. c #828080",
"O. c #9E8C8C",
"+. c #9F9494",
"@. c #A79494",
"#. c #AF9F9F",
"$. c #97AA80",
"%. c #A1A0A0",
"&. c #B3A3A3",
"*. c #B6A6A6",
"=. c #B2B2B2",
"-. c #BFB2B2",
";. c gray72",
":. c #C2B5B5",
">. c #8FC082",
",. c #91C381",
"<. c #98CC80",
"1. c #9CCE85",
"2. c #9ECC8E",
"3. c #A4D38D",
"4. c #AAD694",
"5. c #B0DA9B",
"6. c #B8DEA3",
"7. c #C0E5AC",
"8. c #C8E9B5",
"9. c #D0EEBE",
"0. c #D3C9C9",
"q. c gray83",
"w. c #EAEAEA",
"e. c #EEEEEE",
"r. c white",
/* pixels */
"{ { { { { { { { { { { { { { { { { { { { { { { { { { { { { { { { { { { { { { { { { { { { { { { { { ",
"{ { { { { { { { { { { { { { { { { { { { { { { { { { { { { { { { { { { { { { { { { { { { { { { { { ",
"{ { { { { { { { { { { { { { { { { { { { { { { { { { { { { { { { { { { { { { { { { { { { { { { { { ",
"{ { { { { { { { { { { { { { { { { { { { { { { { { { { { { { { { { { { { { { { { { { { { { { { { { ",
"{ { { { { { { { { { { { { { { { { { { { { { { { { { { { { { { { { { { { { { { { { { { { { { { { { ",
"{ { { { { { { { { { { { { { { { { { { { { { { { { { { { { { | ..1.<...} } ..<.<...| { { { { { { { ",
"{ { { { { { { { { { { { { { { { { { { { { { { { { { { { { { ..3.6.5.1.|  .1.5.5.3...{ { { { { { { ",
"{ { { { { { { { { { { { { { { { { { { { { { { { { { { { { { 1.6.9.8.4...X.5.8.8.5.<.{ { { { { { { ",
"{ { { { { { { { { { { { { { { { { { { { { { { { { { { { { { <.5.8.6.2.[ [ 2.6.7.4.X.{ { { { { { { ",
"{ { { { { { { { { { { { { { { { { _ E E E E E E E { { { { { ..1.4.2.[ ! ~ [ 2.4.1. .{ { { { { { { ",
"{ { { { { { { { { { { { { { { z l p < < < < < < < l l E { { } | ..[ ! I U ~ [ ..| } { { { { { { { ",
"{ { { { { { { { { { { { { { { .   @ K K K K K K K     & { { { { { ( ! I U ! ( { { { { { { { { { { ",
"{ { { { { { { { { { { { { W e N B V K K K K K K K B B 3 6 P { { { ) / ! ! / ) { { { { { { { { { { ",
"{ { { { { { { { { { { { { z O H K K K K K K K K K K K C   i { { { ` ) ( ( ) ` { { { { { { { { { { ",
"{ { { { { { { { { { { { { z O H K K K K K K K K K K K C   i { { { { { { { { { { { { { { { { { { { ",
"{ { { { { { { { { { { { 9 , S K K K K K K K K K K K K J H 2 z { { { { { { { { { { { { { { { { { { ",
"{ { { { { { { { { { { { 6 > F K K K K K K K K K K K K K K b l { { { { { { { { { { { { { { { { { { ",
"{ { { { { { { { } |  .| 8 > F K K K K G A A A J K K K K K b l { { { { { { { { { { { { { { { { { { ",
"{ { { { { { { {  .1.3.3.w > F K K K K B       A K K K K K b l { { { { { { { { { { { { { { { { { { ",
"{ { { { { { { { X.4.7.7.t # m J K G B Z x x s M B K K D B : l { { { { { { { { { { { { { { { { { { ",
"{ { { { { { { { <.5.9.8.y - v n b 1   g 0.0.&.+   b b 4 f * l { { { { { { { { { { { { { { { { { { ",
"{ { { { { { { { ..3.6.5.q j w.o       5 @.@.@.+       = @.f l { { { { { { { { { { { { { { { { { { ",
"{ { { { { { { { | X.1.,.T h d =.;.;.;.o.= = = %.;.c c k = u ^ { { { { { { { { { { { { { { { { { { ",
"{ { { { { { { { { { { ( R 0 . #.*.:.r.e.q.q.+.#.*.@.@.c   i { { { { { { { { { { { { { { { { { { { ",
"{ { { { { { { { { { { ) ~ r X O.@.*.r.r.r.r.-.@.@.@.@.c   i { { { { { { { { { { { { { { { { { { { ",
"{ { { { { { { { { { { ` ( / / .   + @.@.@.@.@.@.@.    & { { { { { { { { { { { { { { { { { { { { { ",
"{ { { { { { { { { { { { { ` ` % $ ; L L L L L L L $ $ 7 { { { { { { { { { { { { { { { { { { { { { ",
"{ { { { { { { { { { { { { { { { { Q & & & & & & & { { { { { { { { { { { { { { { { { { { { { { { { ",
"{ { { { { { { { { { { { { { { { { { { { { { { { { { { { { { { { { { { { { { { { { { { { { { { { { ",
"{ { { { { { { { { { { { { { { { { { { { { { { { { { { { { { { { { { { { { { { { { { { { { { { { { ",
"{ { { { { { { { { { { { { { { { { { { { { { { { { { { { { { | ..1.<...} } ..<.<...| { { { { { { { ",
"{ { { { { { { { { { { { { { { { { { { { { { { { { { { { { { ..3.6.5.1.|  .1.5.5.3...{ { { { { { { ",
"{ { { { { { { { { { { { { { { { { { { { { { { { { { { { { { 1.6.9.8.4...X.5.8.8.5.<.{ { { { { { { ",
"{ { { { { { { { { { { { { { { { { { { { { { { { { { { { { { X.5.8.6.2.[ [ 2.6.7.4.X.{ { { { { { { ",
"{ { { { { { { { { { { { { { { { { { { { { { { { { { { { { { ..1.4.2.[ ! ~ [ 2.4.1. .{ { { { { { { ",
"{ { { { { { { { { { { { { { { { { ] { { { { { { { { { { { { } | ..[ ! I U ~ [ ..| } { { { { { { { ",
"{ { { { { { { { { { { { { { { { ' $.{ { { { { { { { { { { { { { { ( ! I U ! ( { { { { { { { { { { ",
"{ { { { { { { { { { { { { { { { ] $.{ { { { { { { { { { { { { { { ) / ! ! / ) { { { { { { { { { { ",
"{ { { { { { { { { { { { { { { { { { { { { { { { { { { { { { { { { ` ) ( ( ) ` { { { { { { { { { { ",
"{ { { { { { { { { { { { { { { { { { { { { { { { { { { { { { { { { { { { { { { { { { { { { { { { { ",
"{ { { { { { { { { { { { { { { { { { { { { { { { { { { { { { { { { { { { { { { { { { { { { { { { { ",
"{ { { { { { { { { { { { { { { { { { { { { { { { { { { { { { { { { { { { { { { { { { { { { { { { { ",
"{ { { { { { { { } |  .| | } { } |  .| } { { { { { { { { { { { { { { { { { { { { { { { { { { { { { ",
"{ { { { { { { {  .1.3.3.<.| | <.3.4.1. .{ { { { { { { { { { { { { { { { { { { { { { { { { { { { { ",
"{ { { { { { { { X.4.7.7.4... .3.6.7.4.<.{ { { { { { { { { { { { { { { { { { { { { { { { { { { { { ",
"{ { { { { { { { <.5.9.8.5...| 4.8.9.6.1.{ { { { { { { { { { { { { { { { { { { { { { { { { { { { { ",
"{ { { { { { { { ..3.6.5.>./ / >.4.6.3.X.{ { { { { { { { { { { { { { { { { { { { { { { { { { { { { ",
"{ { { { { { { { | X.1.,./ R Y / >.1.X.| { { { { { { { { { { { { { { { { { { { { { { { { { { { { { ",
"{ { { { { { { { { { { ( R a a R / { { { { { { { { { { { { { { { { { { { { { { { { { { { { { { { { "
};
