/* XPM */
static char *_702887979156[] = {
/* columns rows colors chars-per-pixel */
"50 50 8 1 ",
"  c black",
". c #800000",
"X c red",
"o c #808080",
"O c #A59393",
"+ c #A79494",
"@ c white",
"# c None",
/* pixels */
"##################################################",
"##################################################",
"##################################################",
"##################################################",
"##################################################",
"##################################################",
"##################################################",
"##################################################",
"#################        #########################",
"##############   XXXXXXXX   ######################",
"##############   XXXXXXXX   ######################",
"############  XXXXXXXXXXXXXX  ####################",
"############  XXXXXXXXXXXXXX  ####################",
"############  XXXXXXXXXXXXXX  ####################",
"########### .XXXXXXXXXXXXXXXXX ###################",
"########### .XXXXXXXXXXXXXXXXX ###################",
"########### .XXXXXXXXXXXXXXXXX ###################",
"########### .XXXXXX    XXXXXXX ###################",
"########### .XXXXXX    XXXXXXX ###################",
"###########   XXX  @@@+  XXX   ###################",
"########### o@     ++++     ++ ###################",
"########### o@     ++++     ++ ###################",
"############  @@@@@    @@+++  ####################",
"############  +++@@@@@++++++  ####################",
"############  +++@@@@@++++++  ####################",
"##############   ++++++++   ######################",
"##############   ++++++++   ######################",
"#################        #########################",
"##################################################",
"##################################################",
"##################################################",
"##################################################",
"##################################################",
"##################################################",
"##################################################",
"##################################################",
"##################################################",
"################O#################################",
"################+#################################",
"##################################################",
"##################################################",
"##################################################",
"##################################################",
"##################################################",
"##################################################",
"##################################################",
"##################################################",
"##################################################",
"##################################################",
"##################################################"
};
