/* XPM */
static char *c9e54e0bd94e4ea1be160ab9228a8b6fn2P1R3GvBRD1oCiI[] = {
/* columns rows colors chars-per-pixel */
"50 50 256 2 ",
"   c #E49557",
".  c #1D2C62",
"X  c #1D3060",
"o  c #1D3061",
"O  c #1B2F60",
"+  c #DF9257",
"@  c #D6885E",
"#  c #1E3060",
"$  c #1C2F5F",
"%  c #C27767",
"&  c #1D2F5F",
"*  c #1B2F60",
"=  c #926B5B",
"-  c #46455E",
";  c #1D3060",
":  c #CB8958",
">  c #7E615C",
",  c #153066",
"<  c #31395F",
"1  c #1C2F60",
"2  c #1C2F5F",
"3  c #1B2F60",
"4  c #A6858F",
"5  c #AE6871",
"6  c #1B2F60",
"7  c #B77072",
"8  c #1A3060",
"9  c #00005C",
"0  c #1C2F60",
"q  c #B67D59",
"w  c #1A2D5E",
"e  c #22325F",
"r  c #182F63",
"t  c #1C3060",
"y  c #2C3665",
"u  c #FFE3AE",
"i  c #B36C71",
"p  c #172E60",
"a  c #A3828E",
"s  c #90657E",
"d  c #24335F",
"f  c #1B2F60",
"g  c #605978",
"h  c #6A565E",
"j  c #DD905A",
"k  c #887493",
"l  c #E39458",
"z  c #5F6A90",
"x  c #CE8261",
"c  c #243464",
"v  c #6D6E7A",
"b  c #F9DEAD",
"n  c #75757E",
"m  c #CBBA9C",
"M  c #857DC8",
"N  c #705A5C",
"B  c #765F8D",
"V  c #1F325F",
"C  c #1E3062",
"Z  c #1C2E60",
"A  c #8A507B",
"S  c #6F6595",
"D  c #E8A067",
"F  c #927A85",
"G  c #B9706B",
"H  c #928B88",
"J  c #B99C97",
"K  c #4A5088",
"L  c #EAA976",
"P  c #EDC6A3",
"I  c #FABF8E",
"U  c #F4F7FD",
"Y  c #CEB399",
"T  c #313E6B",
"R  c #3A4064",
"E  c #9B6F5A",
"W  c #43435E",
"Q  c #F6ECE8",
"!  c #8E5E6E",
"~  c #1C2F60",
"^  c #1C2F5F",
"/  c #CBACAB",
"(  c #836C8F",
")  c #F7D9A9",
"_  c #BC7D7A",
"`  c #A4646D",
"'  c #9C6D83",
"]  c #DFDEEE",
"[  c #9F5C74",
"{  c #D59D89",
"}  c #55588A",
"|  c #C4B19B",
" . c #C27966",
".. c #878485",
"X. c #1E3161",
"o. c #BFAB9F",
"O. c #C97E64",
"+. c #565F93",
"@. c #FFDFAA",
"#. c #F8F9FB",
"$. c #765968",
"%. c #5E6378",
"&. c #DDC8A2",
"*. c #B5A894",
"=. c #4C5775",
"-. c #CAA993",
";. c #703E82",
":. c #3F4667",
">. c #424778",
",. c #9A7D8D",
"<. c #594868",
"1. c #263763",
"2. c #C9C3E3",
"3. c #CFD1DA",
"4. c #CFA09E",
"5. c #9F7D8F",
"6. c #6B606C",
"7. c #E4975C",
"8. c #E0BF9D",
"9. c #DEA283",
"0. c #3F486C",
"q. c #22325F",
"w. c #243469",
"e. c #D98B5C",
"r. c #F2CDA2",
"t. c #7B84A7",
"y. c #BA908D",
"u. c #FDCD98",
"i. c #1C2F60",
"p. c #D6B9A1",
"a. c #F2D0B5",
"s. c #B58184",
"d. c #999CBE",
"f. c #CF998A",
"g. c #9D8A9A",
"h. c #B68587",
"j. c #BB8A88",
"k. c #B98371",
"l. c #FBF7F4",
"z. c #1C2F60",
"x. c #B49495",
"c. c #A89D92",
"v. c #7974BA",
"b. c #FDFDFD",
"n. c #D1D4F1",
"m. c #5E505D",
"M. c #F6AD7E",
"N. c #49465E",
"B. c #A7765A",
"V. c #514A5D",
"C. c #9FA7C4",
"Z. c #463A70",
"A. c #88665B",
"S. c #715B83",
"D. c #2D3A66",
"F. c #62535C",
"G. c #535172",
"H. c #526089",
"J. c #27345F",
"K. c #AA6E73",
"L. c #836F83",
"P. c #54628B",
"I. c #C9887B",
"U. c #313A5F",
"Y. c #6A6C7A",
"T. c #B07460",
"R. c #59387E",
"E. c #535178",
"W. c #927891",
"Q. c #B09093",
"!. c #BD9AA8",
"~. c #D08767",
"^. c #DFBBB4",
"/. c #E59C62",
"(. c None",
"). c #666B79",
"_. c #E5C9C3",
"`. c #1D3060",
"'. c #F0B38A",
"]. c #C6825C",
"[. c #FAD09F",
"{. c #D9B298",
"}. c #B2B9C9",
"|. c #555C8E",
" X c #2D3B69",
".X c #B98060",
"XX c #626F91",
"oX c #EAB992",
"OX c #BFBFDC",
"+X c #BC927A",
"@X c #EDCAA1",
"#X c #A7ADC6",
"$X c #D9A88F",
"%X c #64667B",
"&X c #DBA677",
"*X c #B5B0DF",
"=X c #8B7D9A",
"-X c #A191D7",
";X c #B79492",
":X c #3F4983",
">X c #6A6374",
",X c #6A68AD",
"<X c #9186D4",
"1X c #946C5B",
"2X c #71637C",
"3X c #6E627C",
"4X c #8D618B",
"5X c #3E446B",
"6X c #69575D",
"7X c #C09FB0",
"8X c #EABB9B",
"9X c #674D66",
"0X c #5B4F5D",
"qX c #3A3E5F",
"wX c #4C485F",
"eX c #9092BE",
"rX c #BD9F88",
"tX c #A87581",
"yX c #D99079",
"uX c #89738A",
"iX c #B2B3DD",
"pX c #EEAF75",
"aX c #A29DCF",
"sX c #9B8496",
"dX c #8A6887",
"fX c #B48768",
"gX c #707085",
"hX c #D0CEEA",
"jX c #F1CCAF",
"kX c #8E8BBD",
"lX c #595F75",
"zX c #1C2F5F",
"xX c #BE9472",
"cX c #E3D7DB",
"vX c #5E4C62",
"bX c #B2B8C9",
"nX c #8E8EB8",
"mX c #C7CAEF",
"MX c #DCDEF4",
"NX c #8D95C0",
"BX c #D5977D",
"VX c #D09281",
"CX c #EFDAD2",
"ZX c #5F61A4",
"AX c #A297E0",
"SX c #B3B9C9",
"DX c #F2F2F9",
"FX c #9B948B",
"GX c #C3ADCA",
"HX c #C1825B",
"JX c #9CA4B9",
"KX c #93827E",
"LX c #D70066",
"PX c #00950B",
"IX c #47704C",
"UX c #47704C",
/* pixels */
"UXUXUXUXUXUXUXUXUXUXUXUXUXUXUXUXUXUXUXUXUXUXUXUXUXUXUXUXUXUXUXUXUXUXUXUXUXUXUXUXUXUXUXUXUXUXUXUXUXUX",
"UXUXUXUXUXUXUXUXUXUXUXUX, r . . . . . . . . . . . . . . . . . r , UXUXUXUXUXUXUXUXUXUXUXUXUXUXUXUXUX",
"UXUXUXUXUXUXUXUXUXUXUXUXw ~ & & & & & & & & & & & & & & & & e 0 . UXUXUXUXUXUXUXUXUXUXUXUXUXUXUXUXUX",
"UXUXUXUXUXUXUXUXUXUXUXUX3 1 $ $ $ $ $ $ $ $ $ $ $ $ $ $ $ $ Z f 8 UXUXUXUXUXUXUXUXUXUXUXUXUXUXUXUXUX",
"UXUXUXUXUXUXUXUXUX, C t e W - - - - - - - - - - - - - - - - N.R q.2 p 9 UXUXUXUXUXUXUXUXUXUXUXUXUXUX",
"UXUXUXUXUXUXUXUXUX. ~ 1 W N = = = = = = = = = = = = = = = = A.6XR & 0 9 UXUXUXUXUXUXUXUXUXUXUXUXUXUX",
"UXUXUXUXUXUXUXUXUXw ^ $ (.E + + + + + + + + + + + + + + + + : A.qXZ d , UXUXUXUXUXUXUXUXUXUXUXUXUXUX",
"UXUXUXUXUXUXUX8 * e V.F.> q                                 j B.> m.:.X 3 p UXUXUXUXUXUXUXUXUXUXUXw ",
"UXUXUXUXUXUXUX* 1 U.N E .X:                                 + : q 1Xm.O V t UXUXUXUXUXUXUXUXUXUXUX3 ",
"UXUXUXUXUXUXUXX O < > :                                           q h # ; * UXUXUXUXUXUXUXUXUXUXUXo ",
"UXUXUXUXUXUXUXX O < > :                                           q h # ; * UXUXUXUXUXUXUXUXUXUXUXo ",
"UXUXUXUXUXUXUXX O < > :                                           q h # ; * UXUXUXUXUXUXUXUXUXUXUXo ",
"UXUXUXUXUXUXUXX O < > :                                     7.D L +X6.# i.f 3 8 , UXUXUXUXUXUXUXUXo ",
"UXUXUXUXUXUXUXX O < > :                                     /.'.jX/ gX# `.i.w.o . UXUXUXUXUXUXUXUXo ",
"UXUXUXUXUXUXUXX O < > :                                     D P Q 3.t.# # # `.^ 8 9 9 UXUXUXUXUXUXo ",
"UXUXUXUXUXUXUXX O < > :                                   l D P Q 3.g.<.vXh F.V.V ~ 2 UXUXUXUXUXUXo ",
"UXUXUXUXUXUXUXX O < > :                                     D P Q cX!.! ` T.B.N J.w.1.UXUXUXUXUXUXo ",
"UXUXUXUXUXUXUXX O < > ].j l                                 /.8XCX_.4.G O.e.: > < O X UXUXUXUXUXUXo ",
"UXUXUXUXUXUXUXX O < h T.x e.                                7.9./ 4.VXx @ j : > < O X UXUXUXUXUXUXo ",
"UXUXUXUXUXUXUXX O y 9X` % @                                 + ~._ _ ~.j l l : > < O X UXUXUXUXUXUXo ",
"UXUXUXUXUXUXUXX O y <.! K. .@ @ @ @ @ @ @ @ @ @ @ @ @ @ @ @ @ x % O.@   : q E N U.1 * UXUXUXUXUXUXo ",
"UXUXUXUXUXUXUXX O c >.S.s K.% % % % % % % % % % % % % % % %  .O.x e.j   q > 0XwXd 0 w UXUXUXUXUXUXo ",
"UXUXUXUXUXUXUXX O c >.} B s 5 5 5 5 i 7 7 7 7 i 5 5 i 7 i 5 i O.j 7.+ j E N.$ V C UXUXUXUXUXUXUXUXo ",
"UXUXUXUXUXUXUXX O y E.S ( dXs s s ' s.f.{ { f.h.' ' h.f.s.s $.k.&X&XfX= N W ^ ~ . UXUXUXUXUXUXUXUXo ",
"UXUXUXUXUXUXUXX O y E.uXW.( B B B ( J 8.r.r.P J k k J P J >X(.KX8.Y F - W d t C , UXUXUXUXUXUXUXUXo ",
"UXUXUXUXUXUXUXX O y g F ,.k S S S k o.) u u b o.=X=Xo.b *.%.T ..&.m n # ; * UXUXUXUXUXUXUXUXUXUXUXo ",
"UXUXUXUXUXUXUXX O y g F a W.k k k sX| ) u u b Y g.g.Y b *.%.T ..&.m n # ; * UXUXUXUXUXUXUXUXUXUXUXo ",
"UXUXUXUXUXUXUXX O y g F 4 4 a a a Q.p.) u u b p.x.x.p.b *.%.T ..&.m n # ; * UXUXUXUXUXUXUXUXUXUXUXo ",
"UXUXUXUXUXUXUX0 ^ D.G.2XL.F 4 4 4 Q.-.8.@Xr.[.{.;X;X{.[.Y H v ..c.FXY.X.f t UXUXUXUXUXUXUXUXUXUXUX3 ",
"UXUXUXUXUXUXUXC 3 X R 0.g L.4 4 4 4 x.J -.oXI $Xy.y.$XI oXY *.H v lX=.~ t . UXUXUXUXUXUXUXUXUXUXUXC ",
"UXUXUXUXUXUXUXUXUXC f J.5X3X,.,.5.5.a a y.9.M.{ j.j.{ '.I @X&.H 0.zXX , UXUXUXUXUXUXUXUXUXUXUXUXUXUX",
"UXUXUXUXUXUXUXUXUX. * V R G.g S.B 4X' tX_ I.yXI._ h.4.^./ c.H Y.:.e 3 9 UXUXUXUXUXUXUXUXUXUXUXUXUXUX",
"UXUXUXUXUXUXUXUXUX, . 8 X D. XZ.R.;.A 5 7 7 7 7 i s.7X2.d.z 0.:.1.w . UXUXUXUXUXUXUXUXUXUXUXUXUXUXUX",
"UXUXUXUXUXUXUXUXUXUXUXUX* ; # Z.;.A [ G i ` [ 5 G j./ hXd.+.6 1 2 UXUXUXUXUXUXUXUXUXUXUXUXUXUXUXUXUX",
"UXUXUXUXUXUXUXUXUXUXUXUX* ; # <.! G  .x G [ A `  .BX^.] #X+.6 1 2 UXUXUXUXUXUXUXUXUXUXUXUXUXUXUXUXUX",
"UXUXUXUXUXUXUXUXUXUXUXUX* ; # h q l l l  .A ;.[ x L a.l.bXz 6 1 2 UXUXUXUXUXUXUXUXUXUXUXUXUXUXUXUXUX",
"UXUXUXUXUXUXUXUXUXUXUXUX* ; # 6.xXpXL D k.A R.! ].L a.l.}.z 6 1 2 UXUXUXUXUXUXUXUXUXUXUXUXUXUXUXUXw ",
"UXUXUXUXUXUXUXUXUXUXUXUX* ; # v -.u.I M.k.$.y $.HXL a.l.}.z 6 1 2 UXUXUXUXUXUXUXUXUXUXUXUXUXUXUXUX0 ",
"UXUXUXUXUXUXUXUXUXUXUXUX* ; # n m @.u.I +X6.c $..X9._.Q #Xz 6 1 2 UXUXUXUXUXUXUXUXUXUXUXUXUXUXUXUXo ",
"UXUXUXUXUXUXUXUXUXUXUXUX* ; # n m @.) u.rX>Xc g 5.!.GX2.eX} 6 1 2 UXUXUXUXUXUXUXUXUXUXUXUXUXUXUXUXo ",
"UXUXUXUXUXUXUXUXUXUXUXUX* ; # n m u @.@.o.%Xc } M -X-XAXv.K 6 1 2 UXUXUXUXUXUXUXUXUXUXUXUXUXUXUXUXo ",
"UXUXUXUXUXUXUXUXUXUXUXUXt V O ).c.| | | H %.T +.M <XM v.ZX:XX.d w UXUXUXUXUXUXUXUXUXUXUXUXUXUXUXUX3 ",
"UXUXUXUXUXUXUXUXUXUXUXUXp 3 X =.).v v v %X} K ,XM M ,XK :Xw.q.t r UXUXUXUXUXUXUXUXUXUXUXUXUXUXUXUXw ",
"UXUXUXUXUXUXUXUXUXUXUXUXUXUX, d Z z.z.# T K S v.<XM +. XX.o , , 9 UXUXUXUXUXUXUXUXUXUXUXUXUXUXUXUXUX",
"UXUXUXUXUXUXUXUXUXUXUXUXUXUX9 0 & X.$ z.>.z kXaX*X*Xd.t.XX=.d 3 . UXUXUXUXUXUXUXUXUXUXUXUXUXUXUXUXUX",
"UXUXUXUXUXUXUXUXUXUXUXUXUXUX9 p 2 q.; 6 K t.iX2.] ] ] 3.JXH.i.e 8 UXUXUXUXUXUXUXUXUXUXUXUXUXUXUXUXUX",
"UXUXUXUXUXUXUXUXUXUXUXUXUXUXUXUXUX8 f Z H.NXmXMXDXb.b.b.SXXXZ f 8 UXUXUXUXUXUXUXUXUXUXUXUXUXUXUXUXUX",
"UXUXUXUXUXUXUXUXUXUXUXUXUXUXUXUXUX. 0 e P.C.n.n.#.#.#.#.C.P.e 0 . UXUXUXUXUXUXUXUXUXUXUXUXUXUXUXUXUX",
"UXUXUXUXUXUXUXUXUXUXUXUXUXUXUXUXUX, r . |.nXOXU U U U U OX|.. r , UXUXUXUXUXUXUXUXUXUXUXUXUXUXUXUXUX",
"UXUXUXUXUXUXUXUXUXUXUXUXUXUXUXUXUXUXUXUXUXUXUXUXUXUXUXUXUXUXUXUXUXUXUXUXUXUXUXUXUXUXUXUXUXUXUXUXUXUX"
};
