/* XPM */
static char *dc4f6c5da61a4b71cf9c590564435c5dhxQVwb5YKExKqSIt[] = {
/* columns rows colors chars-per-pixel */
"50 50 197 2 ",
"   c #071821",
".  c #091C23",
"X  c #0C2126",
"o  c #0E2529",
"O  c #0F292B",
"+  c #112526",
"@  c #13272A",
"#  c #122C2C",
"$  c #182F2B",
"%  c #13302F",
"&  c #1B332E",
"*  c #153431",
"=  c #1A3632",
"-  c #173934",
";  c #193B36",
":  c #1B3F38",
">  c #223D32",
",  c #1D433A",
"<  c #1F483D",
"1  c #254235",
"2  c #294535",
"3  c #2D4A37",
"4  c #22463A",
"5  c #2C433E",
"6  c #224A3E",
"7  c #2C4C3A",
"8  c #30473F",
"9  c #304F3A",
"0  c #34553D",
"q  c #38573F",
"w  c #37593F",
"e  c #385A3E",
"r  c #234E41",
"t  c #294B42",
"y  c #364946",
"u  c #255344",
"i  c #285746",
"p  c #295846",
"a  c #2B5D49",
"s  c #305741",
"d  c #345D44",
"f  c #3B5B42",
"g  c #3D5449",
"h  c #305F49",
"j  c #2E634D",
"k  c #346147",
"l  c #3E6242",
"z  c #32644B",
"x  c #346A4F",
"c  c #3C6C4D",
"v  c #316750",
"b  c #336B51",
"n  c #386F52",
"m  c #3F6E59",
"M  c #3C7354",
"N  c #415B4A",
"B  c #416544",
"V  c #456B46",
"C  c #486E47",
"Z  c #47654B",
"A  c #446C4B",
"S  c #45704D",
"D  c #4D754B",
"F  c #4E794E",
"G  c #527B4E",
"H  c #4B6455",
"J  c #4F6E52",
"K  c #546B5D",
"L  c #427A56",
"P  c #4A7D54",
"I  c #487859",
"U  c #497E5F",
"Y  c #567956",
"T  c #467B60",
"R  c #597565",
"E  c #647E67",
"W  c #667F6D",
"Q  c #4D8256",
"!  c #4B8259",
"~  c #4F885A",
"^  c #558252",
"/  c #5A8652",
"(  c #5D8B55",
")  c #51865B",
"_  c #548C5B",
"`  c #598858",
"'  c #5A935E",
"]  c #618E56",
"[  c #639259",
"{  c #68945D",
"}  c #639A5F",
"|  c #6B9C5C",
" . c #6EA15E",
".. c #71A45F",
"X. c #4F8364",
"o. c #528366",
"O. c #568D62",
"+. c #588B66",
"@. c #5C8E6B",
"#. c #5D9562",
"$. c #5F9860",
"%. c #5B9068",
"&. c #678966",
"*. c #6B836F",
"=. c #6A9362",
"-. c #649D62",
";. c #669869",
":. c #749A6B",
">. c #709F68",
",. c #688A71",
"<. c #798F7B",
"1. c #629371",
"2. c #6D9C78",
"3. c #799876",
"4. c #6BA464",
"5. c #6EA469",
"6. c #73A561",
"7. c #75AB64",
"8. c #79AE65",
"9. c #72A76D",
"0. c #73AA6B",
"q. c #7CAE6E",
"w. c #76B067",
"e. c #7DB367",
"r. c #77B068",
"t. c #7CB569",
"y. c #7FB96A",
"u. c #72A574",
"i. c #7AA676",
"p. c #76AA72",
"a. c #7CAD74",
"s. c #7CB270",
"d. c #81B66D",
"f. c #83BC6B",
"g. c #83AB7E",
"h. c #85B672",
"j. c #85BB73",
"k. c #88BD74",
"l. c #83B47D",
"z. c #89B778",
"x. c #8BBE7A",
"c. c #91BE7F",
"v. c #86C06C",
"b. c #89C26F",
"n. c #8CC474",
"m. c #8EC17B",
"M. c #90C677",
"N. c #92C67B",
"B. c #96CA7D",
"V. c #829784",
"C. c #849B85",
"Z. c #87A487",
"A. c #94AE8E",
"S. c #8EBC87",
"D. c #87B28A",
"F. c #92BC86",
"G. c #98BE93",
"H. c #A0BB9C",
"J. c #8FC082",
"K. c #93C383",
"L. c #9ACD83",
"P. c #96C489",
"I. c #9AC78B",
"U. c #9BC98C",
"Y. c #99C096",
"T. c #9DC19A",
"R. c #A1CE8E",
"E. c #A4D38D",
"W. c #A3CC91",
"Q. c #A4C89A",
"!. c #A6D292",
"~. c #AAD694",
"^. c #ADD896",
"/. c #ADD59B",
"(. c #AED999",
"). c #B0D69E",
"_. c #B1DA9C",
"`. c #AAC3A1",
"'. c #B7CEAD",
"]. c #B4D7A5",
"[. c #B6DEA1",
"{. c #B8DEA4",
"}. c #B7D9AA",
"|. c #BAE1A5",
" X c #BFE3AB",
".X c #C0DFAF",
"XX c #C1E5AE",
"oX c #C3E4B3",
"OX c #C6E8B3",
"+X c #C9E9B6",
"@X c #CBE4BD",
"#X c #CDECBB",
"$X c #D0EEBE",
"%X c #CFE7C2",
"&X c #D6F2C4",
"*X c #D8F3C6",
"=X c #DEF6CC",
/* pixels */
"v.v.v.v.v.v.v.v.v.v.v.v.v.v.v.v.v.v.v.v.v.v.v.v.v.v.v.v.v.v.v.v.v.v.v.v.v.v.v.v.v.v.v.v.v.v.v.v.v.v.",
"v.v.v.v.v.v.v.v.v.v.v.v.v.v.v.v.v.v.v.v.v.v.v.v.v.v.v.v.v.v.v.v.v.v.v.v.v.v.v.v.v.v.v.v.v.v.v.v.v.v.",
"v.v.v.v.v.v.v.v.v.v.v.v.v.v.v.v.v.f.| B $                 $ B | f.f.v.v.v.v.v.v.v.v.v.v.v.v.v.v.v.v.",
"v.v.v.v.v.v.v.v.v.v.v.v.v.v.v.v.v.f.| B $                 $ B | f.v.v.v.v.v.v.v.v.v.v.v.v.v.v.v.v.v.",
"v.v.v.v.v.v.v.v.v.v.v.v.v.v.v.f.8. .( V 3 1 5 y y y y y y g J ]  .8.f.v.v.v.v.v.v.v.v.v.v.v.v.v.v.v.",
"v.v.v.v.v.v.v.v.v.v.v.v.v.v.v.e.[ D B C D ` ,.V.V.V.V.V.V.<.E J Y >.k.b.b.N.L.L.N.n.v.v.v.v.v.v.v.v.",
"v.v.v.v.v.v.v.v.v.v.v.v.v.v.v.7.D 2 1 D 6.c./.@X%X%X%X%X%X'.<.y y &.z.n.n.L._._.E.N.v.v.v.v.v.v.v.v.",
"v.v.v.v.v.v.v.v.v.v.v.v.f.8.| / C q B =.c.~.{.OX#X*X=X&X#X].Z.R K *.:.6.h.~.+X+X_.L.v.v.v.v.v.v.v.v.",
"v.v.v.v.v.v.v.v.v.v.v.v.e.[ C f V G =.F.).|._.~.|.#X=X+X[.!.G.A.C.*.H Z &.F.{.XX~.B.v.v.v.v.v.v.v.v.",
"v.v.v.v.v.v.v.v.v.f.f.f.6.G 3 > C | x./.OXXX^.B.~.XX&X XE.L./..X`.*.8 1 A >.P.!.L.n.v.v.v.v.v.v.v.v.",
"v.v.v.v.v.v.v.v.v.f.7.| ^ l 4 4 F 6.N.!.{.|.(.!.(.{. X[.^.~._.|.Q.3.Z 0 d S =.d.n.b.v.v.v.v.v.v.v.v.",
"v.v.v.v.v.v.v.v.v.f.| C 0 7 r h ) 7.n.B.L.~.[.XX|.^.E.(.|. X_.~.K.q.{ G d 7 B | f.v.v.v.v.v.v.v.v.v.",
"v.v.v.v.v.v.v.v.v.t.( 0 & ; i n _ 4.y.f.n.L.].oX].I.k.R. XOX_.L.n.d.7.( w = 9 ( t.v.v.v.v.v.v.v.v.v.",
"v.v.v.v.v.v.v.v.v.e./ 3 @ - i n ! ' 4.w.f.x.F.G.D.u.4.l.!._.E.M.f.7.-.P 7 $ 3 / e.v.v.v.v.v.v.v.v.v.",
"v.v.v.v.v.v.v.v.v.e./ 3 @ - i b M L ) 4.t.t.>.@.o.! ! ;.j.B.N.n.t.-.! z 1 $ 3 / e.v.v.v.v.v.v.v.v.v.",
"v.v.v.v.v.v.v.f.e...G 7 * , z M n n L ;.j.s.#.L M M M _ 4.t.t.t.4._ M a t 5 f / 6.e.f.v.v.v.v.v.v.v.",
"v.v.v.v.v.v.v.7.] D f 7 6 k P _ L M U i.U.U.a.#.' ' ' ' ' #.#.#._ L n m R W E Y D ( 7.v.v.v.v.v.v.v.",
"v.v.v.v.v.v.v.| V 1 4 r z P } 4._ L X.D.}.{.I.t.7.r.7.-.~ L L L M M n o.Z.H.Z.K 3 V | v.v.v.v.v.v.v.",
"v.v.v.v.v.v.v.[ f # # < a P } 4.' ! @.S.}.{.I.t.f.n.N.0.O.L M b b M L 1.G.].A.H = q [ v.v.v.v.v.v.v.",
"v.v.v.v.v.v.v.[ f # o * , h P ' ' $.5.x.W.I.a.#.p.I._.P.p.' ! M M ! ' 9.S.U.3.N & q [ v.v.v.v.v.v.v.",
"v.v.v.v.v.v.v.[ f @ . X # 4 h L ' 4.t.j.k.q.#.L 2.Q.+X/.m.6.' L L ' 7.f.n.k.{ q $ q [ v.v.v.v.v.v.v.",
"v.v.v.v.v.v.v.[ f @ . o # ; 6 a P } 4.| [ ` L n 1.Y.oXW.a.[ _ Q O.0.N.B.n.f.( 0 $ q [ f.v.v.v.v.v.v.",
"v.v.v.v.v.v.v.[ q @ O ; , , ; , h L Q S l d z b +.l.R.i.Y B F ' 0.K._._.L.f.( 0 $ q [ f.v.v.v.v.v.v.",
"v.v.v.v.f.f.f.] q @ * r i < # O , a a , # * 6 z ! 4.d./ 3 > B | m./.#XOX!.j.( 0 & q ] f.f.f.v.v.v.v.",
"v.v.v.v.e. .] D 0 ; ; < 6 , - * : 6 6 : * : u j M P / V 4 1 d F =.g.T.G.l.5.` C w B G ]  .e.v.v.v.v.",
"v.v.v.v.6.G q 7 7 r , ; * ; 6 6 , - - , 6 i a j z s 7 7 6 r 7 7 f I 1.1.+.) ) ` / D f q G 6.v.v.v.v.",
"v.v.v.v.| l @ # 6 p 6 * @ ; u p , # # < a z b j u * o ; i a < # # 6 j b v b L -.7.G 2 @ l | v.v.v.v.",
"v.v.v.v.| l + o * , , ; ; ; , < : ; , u j b b j p < ; 6 a j u , , u j j i u k Q ' A > + l | v.v.v.v.",
"v.v.v.v.| l + . o # ; 6 r , * * : r p a j b b v j a i a j j a p p a j a , - 4 k M p - + l | v.v.v.v.",
"v.v.v.v.| l +     . * < u , @ o ; u a j j j j a j j j j j a j j j j a r ; # * 6 i , # + l | v.v.v.v.",
"v.v.v.v.| l +       o * ; * X . # ; 6 i j a u < r a j a r 6 i j j i 6 , : ; : , , * o + l | v.v.v.v.",
"v.v.v.v.| l +       . X o X     X o * 6 a p , # ; u j r - * , a a < * * , u 6 ; @ X . + l | v.v.v.v.",
"v.v.v.v.| l +                       o ; u r ; # ; 6 i < * * < a a < % * , r < # .     + l | v.v.v.v.",
"v.v.v.v.| l +                       X # ; : , , , : : , , < u j j u < , , ; * o       + l | v.v.v.v.",
"v.v.v.v.| l +                         . X * < p 6 * o ; r a j j j j a r ; O X         + l | v.v.v.v.",
"v.v.v.v...D 3 & + .                       O ; u , # . # < i i i i i i < * .     . @ & 3 D ..v.v.v.v.",
"v.v.v.v.e.| ^ f > .                       X # * # X   o * - - - - - - * o .     . > f ^ | e.v.v.v.v.",
"v.v.v.v.f.e.8./ q $ X X X .                 X o X . . . X X X X X X X X X X X X $ q / 8.e.f.v.v.v.v.",
"v.v.v.v.v.v.v.| D 0 3 3 2 & o             . o # % % # o .             X & 1 3 3 0 D | v.v.v.v.v.v.v.",
"v.v.v.v.v.v.v.8.| ( / / G e &             o - 6 r r 6 - o             & e G / / ( | 8.v.v.v.v.v.v.v.",
"v.v.v.v.v.v.v.f.f.t.e.e.6.D 1 . . . .     # 6 z x x z 6 #     . . . . 1 D 6.e.e.t.f.f.v.v.v.v.v.v.v.",
"v.v.v.v.v.v.v.v.v.v.v.v.e./ 0 - * * % o . & h ! ~ ~ ! h & . o % * * - 0 / e.v.v.v.v.v.v.v.v.v.v.v.v.",
"v.v.v.v.v.v.v.v.b.n.n.n.d.[ c u u u < * X > S 4.4.4.4.A > X * < u u u c ' e.v.v.v.v.v.v.v.v.v.v.v.v.",
"v.v.v.v.v.v.v.v.n.L.E.E.m.4.! n n b a : # 1 G 7.e.e.7.G 1 # : a z b n ! -.t.v.v.v.v.v.v.v.v.v.v.v.v.",
"v.v.v.v.v.v.v.v.B.~.XXXX!.s.;.%.X.M a r , 4 l D D D D l 4 , r a n L ) -.7.f.v.v.v.v.v.v.v.v.v.v.v.v.",
"v.v.v.v.v.v.v.v.L._.$X+X(.k.t.l.2.T j a p u 4 > > > > 4 u p a j M _ 4.e.y.f.v.v.v.v.v.v.v.v.v.v.v.v.",
"v.v.v.v.v.v.v.v.N.E.{._.J.0.0.l.u.U b b j i * .     . * i j b b L ' t.v.v.v.v.v.v.v.v.v.v.v.v.v.v.v.",
"v.v.v.v.v.v.v.v.n.B.L.K.0.' _ 0.J.L.B.n.v.v.v.v.v.v.v.v.v.v.v.v.v.v.v.v.v.v.v.v.v.v.v.v.v.v.v.v.v.v.",
"v.v.v.v.v.v.v.v.v.v.v.e.' M M ' 0.v.v.v.v.v.v.v.v.v.v.v.v.v.v.v.v.v.v.v.v.v.v.v.v.v.v.v.v.v.v.v.v.v.",
"v.v.v.v.v.v.v.v.v.v.v.e.' M M ' 0.v.v.v.v.v.v.v.v.v.v.v.v.v.v.v.v.v.v.v.v.v.v.v.v.v.v.v.v.v.v.v.v.v."
};
