/* XPM */
static char *result[] = {
/* columns rows colors chars-per-pixel */
"50 50 188 2 ",
"   c #071721",
".  c #071821",
"X  c #091C23",
"o  c #0C2126",
"O  c #0E2529",
"+  c #0F282A",
"@  c #102628",
"#  c #112B2C",
"$  c #162B2A",
"%  c #13302F",
"&  c #1C342E",
"*  c #1C2E33",
"=  c #153431",
"-  c #173834",
";  c #193B35",
":  c #1B3F38",
">  c #1A3630",
",  c #233437",
"<  c #223D32",
"1  c #253739",
"2  c #1D423A",
"3  c #1F483D",
"4  c #254336",
"5  c #294436",
"6  c #24433D",
"7  c #214A3E",
"8  c #2C4D3A",
"9  c #2E443E",
"0  c #304F3A",
"q  c #2F523E",
"w  c #34543C",
"e  c #2D3E40",
"r  c #234E41",
"t  c #334545",
"y  c #354846",
"u  c #3C4F4B",
"i  c #265444",
"p  c #2B5543",
"a  c #295947",
"s  c #2A5C49",
"d  c #325A42",
"f  c #3A5643",
"g  c #2E644D",
"h  c #2F684F",
"j  c #3E6343",
"k  c #32654C",
"l  c #3C644A",
"z  c #3D6A4A",
"x  c #376B4E",
"c  c #3E704F",
"v  c #2F6850",
"b  c #306750",
"n  c #316951",
"m  c #3B6E53",
"M  c #3B7353",
"N  c #3F7855",
"B  c #40564C",
"V  c #485B55",
"C  c #425551",
"Z  c #446A47",
"A  c #486E47",
"S  c #466F49",
"D  c #426544",
"F  c #40714E",
"G  c #4B7349",
"H  c #4F784C",
"J  c #537C4E",
"K  c #4E625A",
"L  c #52655D",
"P  c #457752",
"I  c #487750",
"U  c #447C56",
"Y  c #4C7D53",
"T  c #457A5C",
"R  c #517E50",
"E  c #597C57",
"W  c #51785D",
"Q  c #477960",
"!  c #4C7961",
"~  c #637A6C",
"^  c #607469",
"/  c #4B8156",
"(  c #4B8359",
")  c #4F885A",
"_  c #558252",
"`  c #5A8454",
"'  c #5C8954",
"]  c #548C5B",
"[  c #57905D",
"{  c #5B945E",
"}  c #5F985F",
"|  c #618E56",
" . c #629157",
".. c #62965C",
"X. c #649B5F",
"o. c #6C9F5E",
"O. c #4F8266",
"+. c #558A64",
"@. c #5D8F6A",
"#. c #5B9262",
"$. c #6A8968",
"%. c #639B61",
"&. c #60946B",
"*. c #679A6C",
"=. c #679968",
"-. c #698873",
";. c #758A79",
":. c #718D70",
">. c #689777",
",. c #77967B",
"<. c #67A062",
"1. c #6CA563",
"2. c #6FA965",
"3. c #74AB64",
"4. c #72A76F",
"5. c #74AB6B",
"6. c #79AF6F",
"7. c #77A767",
"8. c #77B067",
"9. c #79B267",
"0. c #7CB569",
"q. c #7DA672",
"w. c #76AA72",
"e. c #7DAA73",
"r. c #75A37B",
"t. c #7CB074",
"y. c #7FB07B",
"u. c #83B76E",
"i. c #83BB6C",
"p. c #82A97E",
"a. c #85BB74",
"s. c #88B578",
"d. c #82B577",
"f. c #87C16D",
"g. c #89C26F",
"h. c #8CC373",
"j. c #8EC27C",
"k. c #91C67A",
"l. c #95CA7D",
"z. c #7BA883",
"x. c #88A087",
"c. c #8EA38D",
"v. c #87AF8F",
"b. c #87B683",
"n. c #8EBD85",
"m. c #8BB68C",
"M. c #95B48C",
"N. c #9BB59A",
"B. c #9ABE98",
"V. c #A2B89D",
"C. c #92C283",
"Z. c #96C980",
"A. c #9ACC83",
"S. c #9CC58C",
"D. c #9ECC8A",
"F. c #9CC595",
"G. c #A1CD8D",
"H. c #A4D38D",
"J. c #A2C693",
"K. c #A6C49B",
"L. c #A5CC9E",
"P. c #A7D591",
"I. c #AAD694",
"U. c #ADD897",
"Y. c #ACD59B",
"T. c #AED999",
"R. c #B2DB9D",
"E. c #B1D69F",
"W. c #A1C5A0",
"Q. c #AED3A4",
"!. c #B6DDA1",
"~. c #B9DAAA",
"^. c #BDDCB4",
"/. c #BBE1A6",
"(. c #BDE2AA",
"). c #C4DEB6",
"_. c #C1E5AC",
"`. c #C6E7B2",
"'. c #C7E9B4",
"]. c #C9EAB6",
"[. c #CCEBBA",
"{. c #D0EEBE",
"}. c #D3ECC4",
"|. c #D5F1C4",
" X c #D9F4C7",
".X c #DFF7CE",
"XX c #E0F8CE",
"oX c None",
/* pixels */
"oXoXoXoXoXoXoXoXoXoXoXoXoXoXoXoXoXoXoX.               X     X oXoXoXoXoXoXoXoXoXoXoXoXoXoXoXoXoXoXoX",
"oXoXoXoXoXoXoXoXoXoXoXoXoXoXoXoXoXoXoX.                     X oXoXoXoXoXoXoXoXoXoXoXoXoXoXoXoXoXoXoX",
"oXoXoXoXoXoXoXoXoXoXoXoXoXoXoXoXoXoX< 5 0 w B C V V V V V V C y oXoXoXoXoXoXoXoXoXoXoXoXoXoXoXoXoXoX",
"oXoXoXoXoXoXoXoXoXoXoXoXoXoXoXoXoX@ w A E ~ p.c.c.c.c.c.c.c.;.L * oXoXoXoXoXoXoXoXoXoXoXoXoXoXoXoXoX",
"oXoXoXoXoXoXoXoXoXoXoXoXoXoXoXoX. $ w  .i.G._.{.}.}.}.}.}.}.V.^ * . oXoXoXoXoXoXoXoXoXoXoXoXoXoXoXoX",
"oXoXoXoXoXoXoXoXoXoXoXoXoXoXoX< < w J p.H.U._.].{. XXX X{.[.K.;.K u t oXoXoXoXoXoXoXoXoXoXoXoXoXoXoX",
"oXoXoXoXoXoXoXoXoXoXoXoXoXoX$ w A ` p.G.R.R.R.U._.{.XX[._.T.J.M.x.;.L , oXoXoXoXoXoXoXoXoXoXoXoXoXoX",
"oXoXoXoXoXoXoXoXoXoXoXoXoX. $ j  .u.G.~.{._.H.k.P.`.XX].T.k.G.R.).V.~ 1 . oXoXoXoXoXoXoXoXoXoXoXoXoX",
"oXoXoXoXoXoXoXoXoXoXoXoXO + 4 S o.h.H./.'./.P.A.I._.[.~.U.G.H.!.'.K.:.f < & oXoXoXoXoXoXoXoXoXoXoXoX",
"oXoXoXoXoXoXoXoXoXoXoXO = ; p Y 2.h.l.P.T.T./.!.R.U.T.R.R./.!.R.U.S.q.` D w & oXoXoXoXoXoXoXoXoXoXoX",
"oXoXoXoXoXoXoXoXoXoX. O ; i x ] 3.f.h.k.l.U.(.|._.U.l.P./.{._.U.A.h.i.8. .D &   oXoXoXoXoXoXoXoXoXoX",
"oXoXoXoXoXoXoXoXoX. . O 2 a M ) <.9.0.0.g.D.!.^.L.s.0.l.U.]._.H.h.i.0.0...D &   . oXoXoXoXoXoXoXoXoX",
"oXoXoXoXoXoXoXoXoX. . O 2 a M N ) { 2.9.i.a.m.v.r.*.#.w.Z.T.P.A.h.0.2.#./ w & . . oXoXoXoXoXoXoXoXoX",
"oXoXoXoXoXoXoXoXoX.   O 2 a n M N / { 8.i.5.@.O.O.T U #.5.k.k.h.h.9.} / k 6 # . . oXoXoXoXoXoXoXoXoX",
"oXoXoXoXoXoXoXoXoXo O = 7 k M n v M #.6.h.4.[ M M M M ) %.3.0.0.0.<.] m g p 1 1 1 oXoXoXoXoXoXoXoXoX",
"oXoXoXoXoXoXoXoXO = ; 7 l / ] / M M *.n.I.n.w.[ [ { [ { { } } } #.] U x m ! ~ ~ K e oXoXoXoXoXoXoXoX",
"oXoXoXoXoXoXoX. # ; 7 k / %.1.] N N z.F.`.Y.j.5.2.8.5.<.[ U N U U N M n Q ,.N.N.~ y   oXoXoXoXoXoXoX",
"oXoXoXoXoXoX. . + 2 i M ] 2.3.} ( Q z.Q.}.!.A.0.0.g.k.5.[ N M n n n n M +.v.^.~.,.y     oXoXoXoXoXoX",
"oXoXoXoXoXoX. . o % 2 q F ] } { { #.z.F.!.S.t.%.t.C.U.C.w.{ ( N n M T ] *.b.Y.F.$.t   . oXoXoXoXoXoX",
"oXoXoXoXoXoX. . o o # : p c ( { <.5.a.k.A.t.%.( r.F.'.T.C.5.{ ( n N ] <.8.a.Z.d.E 5 . . oXoXoXoXoXoX",
"oXoXoXoXoXoX. . . X X + 2 i M ] 2.0.i.0.9.X./ n >.W.|.(.H.i.1.] P U %.0.h.g.g.o.A <   . oXoXoXoXoXoX",
"oXoXoXoXoXoX. . o + % ; ; 3 p c [ <.{ ' _ I M n &.m./.J.w.` _ _ ) %.d.S.H.l.h.3.G <     oXoXoXoXoXoX",
"oXoXoXoXoXoX. . O = 7 7 2 = ; p c U z w 8 q g n @.e.D.e.E w j _ o.d.G.!./.H.k.3.G <     oXoXoXoXoXoX",
"oXoXoXoXoXoX. . + 2 g i 2 @ O ; i g 3 # X > 7 n ( <.i.| w O 4 H 7.A.R.{.[.T.l.1.G < X X oXoXoXoXoXoX",
"oXoXoXoXoXO # = - 2 7 3 : - - : 3 7 2 - - 3 i n M Y ` S q - 7 j R =.p.B.F.b.4...R j 0 5 > oXoXoXoXoX",
"oXoXoXoX. # ; 3 3 : - - : 3 3 2 ; = ; 3 r i g n k d w w 8 7 7 q w D W -.>.@.+.) _ ' J j 4 . oXoXoXoX",
"oXoXoXX . # 3 g i : O O : a s 2 + O ; i g n v h 7 = X % 7 g i ; o # 7 s n n n N [ 3.3.J 5   . oXoXoX",
"oXoXoX. . O - 3 3 : = - : 7 r : - = 3 a v n n g i 3 % 2 i g a 7 = ; r g g s i s P { ..Z < . . oXoXoX",
"oXoXoX. . o # = ; 2 3 3 : ; - : 2 r i g b b n b s i 3 i s g g i 7 i i g g 7 : 2 s I Y d > . . oXoXoX",
"oXoXoX. . . X X # 2 s i : # O ; i g g v v v v b h g g g g h h g g g v n a 2 # # 2 s g 7 # . . oXoXoX",
"oXoXoX. . . . . O - r 3 = o O = 3 i s g v g i i s g n g a i a g g g g i 7 2 % % 2 7 7 ; + . . oXoXoX",
"oXoXoX. . . . . o + = = # X X O % : r s g a 3 ; 7 i h a 7 ; 3 i g g 7 ; ; 2 2 3 2 ; - # o . . oXoXoX",
"oXoXoX. . . . . . X o o X . . X o + : i g r - o - i g i - O = 7 g a 2 + + 2 i i 2 # o X . . . oXoXoX",
"oXoXoX. . . . . . . . . . . . . . X = 3 i 2 - + - 3 i 3 : + - r g a 2 = = : r r - + . . . . . oXoXoX",
"oXoXoX. . . . . . . . . . . . . . X + = : : 2 2 2 : : : : 2 r a v s i 3 2 2 : - + o . . . . . oXoXoX",
"oXoXoX. . . . . . . . . . . . . . . X o O - 7 s 3 - O = 3 a g g v v g s i 2 + o o X . . . . . oXoXoX",
"oXoXoX. . . . . . . . . . . . . . . . . . = 3 i 2 # X + 2 i a a a a a a r - O   . . . . . . . oXoXoX",
"oXoXoXoXoX. . . . . . . . . . . . . . . . O = 2 = O . O = : : 2 2 : : 2 ; + o . . . . . . oXoXoXoXoX",
"oXoXoXoXoXoX. . . .   . . . . . . . . . . o o + o X   X o O O O O O O O O o X . . . . . oXoXoXoXoXoX",
"oXoXoXoXoXoXoX. . .     X . . . . . . . . X o O O O O X X . . .   . . . . . . . . . . oXoXoXoXoXoXoX",
"oXoXoXoXoXoXoXoX. . . X   . . . . . . . . + % ; : : : % + . . . . .   . . . . . . . oXoXoXoXoXoXoXoX",
"oXoXoXoXoXoXoXoXoXoXoXoX    . . . . . . X % 3 i i i i 3 % X . . . . . . . . oXoXoXoXoXoXoXoXoXoXoXoX",
"oXoXoXoXoXoXoXoXoXoXoXoXO X o X o o X . X ; i M M M M i ; X . X X o o o o o oXoXoXoXoXoXoXoXoXoXoXoX",
"oXoXoXoXoXoXoXoXoXoXoXoX; ; ; ; ; - + o o 4 z ] ] ] ] z 4 o o # - ; - ; - ; oXoXoXoXoXoXoXoXoXoXoXoX",
"oXoXoXoXoXoXoXoXoXoXoXoXi i i i i 3 ; O o 0 J 1.2.2.2.R w o O ; r i i i i i oXoXoXoXoXoXoXoXoXoXoXoX",
"oXoXoXoXoXoXoXoXoXoXoXoXoXb n g g g 3 = @ w ' i.0.u.0.' w @ % 7 s n v v n oXoXoXoXoXoXoXoXoXoXoXoXoX",
"oXoXoXoXoXoXoXoXoXoXoXoXoXv v n h g i 2 > w Z _ _ _ _ Z w ; 2 i g v v v n oXoXoXoXoXoXoXoXoXoXoXoXoX",
"oXoXoXoXoXoXoXoXoXoXoXoXoXoXoXv h g g a q 7 8 0 5 5 8 8 7 i i s g v n oXoXoXoXoXoXoXoXoXoXoXoXoXoXoX",
"oXoXoXoXoXoXoXoXoXoXoXoXoXoXoXoXv n v n g 7 % . . . . % 3 g n v n v oXoXoXoXoXoXoXoXoXoXoXoXoXoXoXoX",
"oXoXoXoXoXoXoXoXoXoXoXoXoXoXoXoXg v n n g 3 % . . . . % 3 g v n n g oXoXoXoXoXoXoXoXoXoXoXoXoXoXoXoX"
};
